<?xml version="1.0" encoding="UTF-8"?>
<svg id="Layer_1" data-name="Layer 1" xmlns="http://www.w3.org/2000/svg" viewBox="0 0 186 74">
  <defs>
    <style>
      .cls-1 {
        fill: #221f20;
      }
    </style>
  </defs>
  <path class="cls-1" d="M40.16,34.01s.02-.04.04-.04h11.62s.09.04.09.09c.07,3.9-.88,8.02-3.28,11-2.02,2.5-4.76,3.86-8.22,4.08-3.84.25-7.45-1.16-9.86-4.17-2.64-3.29-3.5-7.57-3.42-11.8.13-7.12,4.06-14.23,11.89-14.64,1.53-.08,3.05.08,4.56.48,3.74.99,5.98,3.84,7.04,7.44,0,.01,0,.03-.02.03h-.74s-.05-.02-.05-.04c-1.17-3.75-3.5-6.28-7.49-6.97-5.12-.88-9.54.86-12.22,5.25-2.01,3.29-2.51,7.43-2.14,11.39.5,5.23,3.15,10.6,8.69,11.96,3.93.97,8.23.04,11-3.04,1.01-1.12,1.78-2.41,2.32-3.85.77-2.05,1.17-4.19,1.2-6.41,0-.05-.04-.08-.08-.08h-10.9s-.03-.02-.03-.03v-.65h0Z"/>
  <path class="cls-1" d="M73.58,36.78s.04.04.05.01l7.11-17.77c.07-.18.32-.18.39,0l7.07,17.78s.05.02.05,0v-17.83s.02-.05.05-.05c1.22-.01,4.47-.01,9.75,0,1.13,0,2.26.24,3.39.71,3.13,1.31,4.46,4.23,4.61,7.52.19,4.07-1.24,7.9-5.4,9.22-.71.22-1.43.36-2.15.42-.04,0-.06.05-.03.07l8.59,11.73c.05.07,0,.17-.08.17h-.63c-.11,0-.21-.05-.27-.14l-8.44-11.8s-.03-.02-.05-.02h-8.54s-.06.03-.06.06v1.75c0,.11.02.22.06.33l3.86,9.72s-.02.1-.07.1h-.52c-.07,0-.13-.04-.15-.1-3.94-9.77-6.82-17.08-11.17-28.2-.01-.03-.06-.03-.07,0l-11.29,28.19c-.03.07-.09.11-.16.11h-.54c-.05,0-.09-.05-.07-.1l3.91-9.76c.04-.11.07-.23.07-.34v-5.08s-.02-.05-.05-.05h-16.83s-.07.03-.07.07v15.18s-.04.08-.08.08h-.56s-.09-.04-.09-.09v-29.67s.02-.03.03-.03h.66s.03.01.03.03v13.67s.02.05.05.05h16.84s.06-.03.06-.06v-13.59c0-.06.05-.1.1-.1h.52c.06,0,.1.04.1.1v17.73M88.99,27.84c0,3.3,0,6.03,0,8.17,0,.02.02.04.04.04,2.89.02,5.87.02,8.94,0,1.22,0,2.33-.25,3.34-.74,2.98-1.41,4.03-4.35,4.03-7.46,0-3.12-1.05-6.05-4.03-7.47-1.01-.48-2.13-.73-3.34-.74-3.07-.02-6.05-.03-8.94-.01-.02,0-.05.02-.05.05v8.16h0Z"/>
  <path class="cls-1" d="M137.68,36.86s.03.01.03,0v-17.78c0-.2.27-.28.38-.11l18.06,27.91s.06.01.06-.02v-27.86s.04-.09.09-.09h.55s.09.04.09.09v29.58c0,.23-.3.32-.42.12l-18.01-27.98s-.06-.01-.06.02v17.9c0,.09.02.17.05.25l3.88,9.77s-.01.09-.06.09h-.53c-.07,0-.13-.04-.16-.11-3.59-8.88-7.31-18.28-11.15-28.2-.01-.03-.06-.03-.08,0l-11.3,28.22c-.02.05-.07.09-.13.09h-.57s-.08-.05-.06-.09l11.88-29.67c.07-.17.3-.17.37,0l7.1,17.86h0Z"/>
  <path class="cls-1" d="M113.92,48.75h-.79s-.07-.04-.06-.08l5.35-13.82s0-.04,0-.06l-10.77-15.06s0-.1.05-.1h.67s.04,0,.05.02l10.41,14.22s.09.03.11-.01l5.76-14.88s.03-.04.06-.04h.67s.07.04.06.08l-11.49,29.68s-.03.04-.06.04h0Z"/>
  <path class="cls-1" d="M49.75,53.75c.28.39.47.66.58.81,0,.01.03,0,.03-.01v-2.2s.04-.08.08-.08h.18s.09.04.09.09v3.04c0,.07-.09.1-.14.05-.3-.41-.65-.9-1.06-1.5-.28-.39-.47-.66-.58-.81-.01-.01-.03,0-.03.01v2.2s-.04.08-.08.08h-.18s-.09-.04-.09-.09v-3.04c0-.07.09-.1.14-.04.29.41.65.9,1.06,1.49h0Z"/>
  <path class="cls-1" d="M69.02,54.64c-.32,0-.51,0-.56,0s-.11.03-.13.09l-.25.61c-.03.08-.13.12-.21.09l-.09-.03c-.05-.02-.07-.08-.05-.13.53-1.33.93-2.32,1.18-2.97,0-.02.02-.04.05-.05.02-.02.05-.02.07-.02s.04,0,.07.02c.02.01.04.03.05.05.25.65.64,1.64,1.17,2.98.02.05,0,.11-.05.13l-.09.03c-.08.03-.18,0-.21-.09l-.24-.61c-.02-.05-.07-.09-.13-.09s-.24,0-.57,0M68.51,54.24s.01.07.05.07h.94s.06-.04.05-.07l-.47-1.25s-.08-.04-.1,0l-.47,1.25h0Z"/>
  <path class="cls-1" d="M134.14,52.22s.05,0,.07.02c.02.01.04.03.04.05.25.65.64,1.64,1.17,2.97.02.05,0,.11-.05.13l-.09.03c-.08.03-.18,0-.21-.09l-.24-.61c-.02-.05-.07-.09-.13-.09s-.24,0-.56,0c-.32,0-.51,0-.56,0s-.11.03-.13.09l-.24.61c-.03.08-.13.12-.21.09l-.09-.03s-.07-.08-.05-.13c.53-1.33.92-2.32,1.18-2.97,0-.02.02-.04.04-.05.02-.02.05-.02.07-.02M133.61,54.25s.01.07.05.07h.94s.06-.03.05-.07l-.47-1.26s-.08-.04-.1,0l-.47,1.26h0Z"/>
  <path class="cls-1" d="M30.13,54.55h.05c.08,0,.15.05.18.13.23.7,1.57.6,1.36-.3-.15-.64-1.79-.15-1.67-1.33.1-1.06,1.73-1.11,1.97-.11.02.09-.04.17-.13.17h-.04c-.08,0-.15-.05-.18-.13-.11-.32-.38-.45-.83-.38-.2.03-.33.13-.39.3-.3.9.91.61,1.42,1.07.45.41.25,1.15-.27,1.38-.61.27-1.37.07-1.6-.63-.03-.09.04-.17.13-.17h0Z"/>
  <path class="cls-1" d="M43.06,52.2c.76,0,1.38.74,1.38,1.64,0,.91-.62,1.64-1.39,1.64-.76,0-1.38-.74-1.38-1.64,0-.91.62-1.64,1.39-1.64M43.05,52.56c-.55,0-1,.58-1,1.28,0,.71.45,1.28,1,1.28.55,0,1-.58,1-1.28,0-.71-.45-1.28-1-1.28h0Z"/>
  <path class="cls-1" d="M75.78,54.29l.66,1.02s0,.11-.06.11h-.12c-.09,0-.18-.05-.23-.12l-.63-.97s-.08-.07-.13-.07h-.47s-.08.04-.08.08v1s-.03.08-.08.08h-.2s-.09-.04-.09-.08v-2.98c0-.06.05-.1.1-.1.35,0,1.08-.07,1.42.11.66.35.65,1.44-.06,1.8-.05.02-.06.08-.03.13M74.72,52.69v1.17c0,.05.04.09.09.09h.6c.33,0,.6-.28.6-.64v-.08c0-.35-.27-.64-.6-.64h-.6c-.05,0-.09.04-.09.09h0Z"/>
  <path class="cls-1" d="M92.4,53.52c.15-.02.29-.01.42.02.07.01.12.08.11.15,0,.07-.07.12-.14.12h-.09c-.05,0-.1.05-.09.1.05.6.05,1.39-.7,1.54-1.06.21-1.6-1.15-.76-1.76.04-.03.04-.08.01-.11-.55-.61-.13-1.4.67-1.35.41.02.65.21.72.57.01.08-.03.15-.1.17-.07.02-.15-.01-.19-.08l-.08-.16s-.05-.07-.08-.09c-.81-.47-1.25.76-.36.87.05,0,.09.04.09.09.01.07,0,.11-.01.15-.02.04-.06.06-.13.06-.79.06-.78,1.21-.04,1.31.79.11.67-.9.66-1.51,0-.05.04-.1.09-.1h0Z"/>
  <path class="cls-1" d="M101.55,52.33s.03-.08.08-.08h.84c.74,0,1.34.65,1.33,1.44v.29c0,.8-.6,1.44-1.34,1.44h-.84s-.08-.04-.08-.08v-3.02M101.9,52.7v2.28c0,.05.04.09.09.09h.41c.57,0,1.03-.48,1.03-1.09v-.29c0-.6-.46-1.09-1.03-1.09h-.41c-.05,0-.09.04-.09.09h0Z"/>
  <path class="cls-1" d="M109.53,52.34v.18s-.03.08-.08.08h-1.07s-.08.03-.08.08v.87s.03.08.08.08h1.02s.08.03.08.08v.18s-.03.08-.08.08h-1.02s-.08.03-.08.08v.95s.03.08.08.08h1.11s.08.03.08.08v.2s-.03.08-.08.08h-1.47s-.08-.03-.08-.08v-3s.03-.08.08-.08h1.43s.08.03.08.08h0Z"/>
  <path class="cls-1" d="M113.91,53.85c0,.4.12.77.42,1.06.04.04.09.07.14.09.59.25,1.02.08,1.3-.52.02-.05.08-.08.14-.06l.13.03s.06.05.05.09c-.26.8-1.03,1.14-1.77.79-.55-.26-.76-.88-.77-1.48,0-.6.2-1.22.74-1.49.73-.37,1.52-.03,1.79.76.01.04,0,.08-.05.09l-.13.04c-.06.02-.11-.01-.14-.06-.29-.59-.73-.76-1.31-.5-.05.02-.09.05-.13.09-.29.29-.41.66-.4,1.06h0Z"/>
  <path class="cls-1" d="M121.43,52.2c.76,0,1.37.74,1.37,1.65,0,.91-.62,1.64-1.39,1.63-.76,0-1.37-.74-1.37-1.65,0-.91.62-1.64,1.39-1.63M121.42,52.56c-.56,0-1.01.58-1.01,1.28,0,.71.45,1.28,1.01,1.28.56,0,1.01-.58,1.01-1.28,0-.71-.45-1.28-1.01-1.28h0Z"/>
  <path class="cls-1" d="M128.38,54.16s-.07.08-.03.13l.66,1.02s0,.11-.06.11h-.12c-.09,0-.18-.05-.23-.12l-.63-.97s-.08-.07-.13-.07h-.47s-.08.04-.08.08v1s-.03.08-.08.08h-.2s-.09-.04-.09-.08v-2.98c0-.06.05-.1.1-.1.35,0,1.08-.07,1.42.11.66.35.65,1.44-.06,1.8M127.28,52.67v1.2s.03.08.08.08h.62c.33,0,.6-.28.6-.64v-.08c0-.35-.27-.64-.6-.64h-.62s-.08.03-.08.08h0Z"/>
  <path class="cls-1" d="M151.22,52.2c.76,0,1.37.74,1.37,1.65,0,.91-.62,1.64-1.39,1.63-.76,0-1.37-.74-1.37-1.65,0-.91.62-1.64,1.39-1.63M151.21,52.56c-.56,0-1.01.58-1.01,1.28,0,.71.45,1.28,1.01,1.28.56,0,1.01-.58,1.01-1.28,0-.71-.45-1.28-1.01-1.28h0Z"/>
  <path class="cls-1" d="M157.67,53.94c-.28-.39-.47-.66-.58-.81-.01-.01-.03,0-.03.01v2.2s-.03.08-.08.08h-.18s-.09-.04-.09-.09v-3.04c0-.07.09-.1.14-.05.3.41.65.91,1.07,1.5.28.39.47.66.58.81,0,.01.03,0,.03-.01v-2.21s.03-.08.08-.08h.18s.09.04.09.09v3.04c0,.07-.09.1-.14.05-.3-.41-.65-.9-1.07-1.5h0Z"/>
  <path class="cls-1" d="M36.94,55.43s-.03,0-.05,0c-.07,0-.13-.06-.13-.13v-2.61s-.03-.08-.08-.08h-.62c-.07,0-.12-.06-.12-.12v-.08c0-.07.06-.13.13-.13.28,0,.57-.01.88-.01.31,0,.6,0,.88.01.07,0,.13.06.13.13v.08c0,.07-.05.12-.12.12h-.62s-.08.04-.08.08v2.61c0,.07-.06.13-.14.13-.01,0-.03,0-.05,0h0Z"/>
  <path class="cls-1" d="M55.01,52.38c0-.07.05-.12.12-.12h1.36c.07,0,.12.06.12.13v.1c0,.06-.06.11-.12.11h-1.04s-.08.03-.08.07v.87s.04.08.08.08h.98c.07,0,.12.05.12.12v.09c0,.07-.05.13-.12.12h-.97c-.05,0-.09.04-.09.09v.92c0,.05.04.1.1.1h1.05c.07,0,.12.05.12.11v.11c0,.07-.05.12-.12.12h-1.44s-.07-.03-.07-.07v-2.97h0Z"/>
  <path class="cls-1" d="M62.32,52.32c.08,0,.12.02.15.1.12.42.32,1.16.62,2.24,0,.01.02.01.03,0l.62-2.32s.05-.07.09-.07h.19s.08.04.07.09l-.81,3.01c-.04.16-.26.16-.31,0-.23-.73-.43-1.47-.62-2.22,0-.01-.01-.01-.03-.01-.02,0-.03,0-.03.02-.18.75-.39,1.49-.61,2.23-.05.15-.26.15-.31,0l-.82-3.01s.02-.09.07-.09h.19s.08.03.09.07l.63,2.32s.02.01.03,0c.29-1.08.49-1.82.61-2.24.02-.08.06-.1.14-.1h0Z"/>
  <path class="cls-1" d="M80.53,52.38c0-.06.05-.12.11-.12h1.36c.07,0,.12.06.12.12v.1c0,.06-.05.11-.12.11h-1.04s-.08.03-.08.07v.87s.04.08.08.08h.98c.07,0,.12.05.12.12v.09c0,.07-.05.13-.12.13h-.97c-.05,0-.09.04-.09.09v.92c0,.05.05.09.1.09h1.05c.07,0,.12.05.12.11v.11c0,.07-.05.12-.12.12h-1.44s-.07-.03-.07-.07v-2.97h0Z"/>
  <path class="cls-1" d="M139.9,52.26c.3,0,.6,0,.87.01.07,0,.13.06.13.13v.08c0,.07-.05.12-.12.12h-.62s-.08.04-.08.08v2.6c0,.07-.06.13-.13.13h-.1c-.07,0-.13-.06-.13-.13v-2.6s-.04-.08-.08-.08h-.62c-.07,0-.12-.05-.12-.12v-.08c0-.07.06-.13.12-.13.28,0,.57-.01.87-.01h0Z"/>
  <path class="cls-1" d="M145.33,52.27c.19,0,.37.01.53.03.07,0,.11.07.09.13v.05c-.03.05-.08.09-.14.08-.1,0-.17,0-.2.01-.05.02-.09.07-.09.12,0,.02,0,.41,0,1.15s0,1.13,0,1.15c0,.05.04.1.09.12.04.02.11.02.2.01.06,0,.11.03.12.08v.05c.03.06-.01.13-.08.14-.16.01-.33.02-.53.03-.19,0-.37-.01-.53-.03-.07,0-.11-.07-.09-.13v-.05c.03-.05.08-.09.14-.08.1,0,.17,0,.2-.01.05-.02.09-.07.09-.12,0-.02,0-.4,0-1.15s0-1.13,0-1.15c0-.05-.04-.1-.09-.12-.04-.02-.11-.02-.2-.01-.06,0-.11-.03-.12-.08v-.05c-.03-.06.01-.13.08-.13.16-.02.33-.03.53-.03h0Z"/>
</svg>