<?xml version="1.0" encoding="UTF-8"?>
<svg id="Layer_1" data-name="Layer 1" xmlns="http://www.w3.org/2000/svg" viewBox="0 0 186 74">
  <defs>
    <style>
      .cls-1 {
        fill: #e92328;
      }
    </style>
  </defs>
  <path class="cls-1" d="M105.23,43.37c1.79,1.97,4.12,3.02,6.98,3.15,2.02.09,3.85-.69,3.57-3.1-.01-.09-.04-.18-.09-.26-.67-1.13-1.53-1.98-2.59-2.53-2.39-1.26-4.34-2.15-5.89-3.7-3.6-3.61-3.65-9.5-.68-13.59,1.82-2.5,4.31-4,7.47-4.48,3.92-.6,7.59.11,11.01,2.12.14.08.23.24.23.4v8.93c0,.09-.1.14-.17.08-1.95-1.48-4.12-2.78-6.59-2.58-1.07.09-1.83.59-2.26,1.51-.82,1.72.19,2.87,1.47,3.88.07.05.14.1.22.14,2.77,1.27,5.6,3.01,7.31,5.49.54.79.94,1.79,1.19,2.99.79,3.82-.15,7.2-2.81,10.16-3.84,4.26-11.39,3.96-16.2,1.97-.61-.25-1.34-.73-2.18-1.44-.06-.05-.1-.13-.1-.21v-8.89c0-.06.07-.09.11-.04h0Z"/>
  <path class="cls-1" d="M129.09,43.37c1.79,1.97,4.12,3.01,6.98,3.14,2.02.09,3.85-.69,3.57-3.11-.01-.09-.04-.18-.09-.26-.67-1.13-1.53-1.97-2.6-2.53-2.39-1.25-4.34-2.14-5.89-3.69-3.61-3.6-3.65-9.5-.69-13.58,1.82-2.5,4.3-4,7.47-4.48,3.92-.6,7.59.1,11,2.11.14.09.23.24.23.4v8.92c0,.09-.09.14-.16.08-1.95-1.47-4.12-2.78-6.59-2.57-1.07.09-1.82.59-2.26,1.51-.82,1.72.19,2.87,1.47,3.88.07.05.14.1.22.14,2.77,1.27,5.6,3,7.31,5.48.54.79.94,1.79,1.19,2.99.79,3.82-.14,7.2-2.8,10.15-3.84,4.26-11.38,3.97-16.19,1.99-.61-.25-1.34-.73-2.18-1.44-.06-.05-.1-.13-.1-.21v-8.89c0-.06.06-.09.1-.04h0Z"/>
  <path class="cls-1" d="M163.22,54.13c0,.07-.05.12-.12.12h-10.05c-.07,0-.12-.05-.12-.12V19.16c0-.07.05-.12.12-.12h10.05c.07,0,.12.05.12.12v34.98h0Z"/>
  <path class="cls-1" d="M57.58,19.36h10.21c.05,0,.1.04.1.1v27.47c0,.05.04.1.1.1h9.89c.05,0,.1.04.1.1v7.56c0,.05-.04.1-.1.1h-20.29c-.05,0-.1-.04-.1-.1V19.46c0-.05.04-.1.1-.1h0Z"/>
  <path class="cls-1" d="M80.22,19.36h21.44s.09.04.09.09v7.52s-.04.09-.09.09h-10.94s-.09.04-.09.09v5.84s.04.09.09.09h10.54s.09.04.09.09v7.49s-.04.09-.09.09h-10.53s-.09.04-.09.09v6.4s.04.09.09.09h10.88s.09.04.09.09v7.25s-.04.09-.09.09h-21.39s-.09-.04-.09-.09V19.45s.04-.09.09-.09h0Z"/>
  <path class="cls-1" d="M39.31,19.44c2.03,0,4.06,0,6.08-.01.08,0,.15.05.17.13l10.22,35.08c.02.07-.03.15-.11.15h-10.82c-.1,0-.19-.07-.21-.16l-1.31-5.14c-.02-.08-.09-.14-.17-.14-.11,0-1.41-.01-3.87-.01-2.47,0-3.76,0-3.87,0-.08,0-.15.06-.17.14l-1.32,5.14c-.02.1-.11.16-.21.16l-10.82-.02c-.08,0-.13-.07-.11-.15l10.27-35.07c.02-.08.09-.13.17-.13,2.02.01,4.05.02,6.08.02M37.38,40.98c-.01.07.04.13.11.13l3.68-.05c.07,0,.12-.07.1-.13l-1.93-7.58c-.03-.11-.18-.11-.21,0l-1.75,7.63h0Z"/>
</svg>