<?xml version="1.0" encoding="UTF-8"?>
<svg id="Layer_1" data-name="Layer 1" xmlns="http://www.w3.org/2000/svg" viewBox="0 0 186 74">
  <defs>
    <style>
      .cls-1 {
        fill: #040404;
      }
    </style>
  </defs>
  <path class="cls-1" d="M39.54,25.79h1.56c.07,0,.13.06.13.13v10.69c0,.23.29.33.43.16,1.19-1.38,2.68-1.88,4.45-1.52,2.85.58,3.33,2.64,3.28,5.39,0,.04,0,2.36,0,6.94,0,.08-.06.14-.14.14h-1.56c-.08,0-.14-.06-.14-.14.06-4.31.04-7.05-.05-8.22-.13-1.74-1.07-2.61-2.84-2.61-2.65,0-3.33,1.93-3.41,4.24-.05,1.34-.05,3.54,0,6.61,0,.08-.06.14-.13.14h-1.59c-.06,0-.11-.05-.11-.11v-21.7c-.01-.08.05-.14.12-.14h0Z"/>
  <path class="cls-1" d="M71.59,47.59c0,.08-.07.15-.15.15h-1.5c-.08,0-.15-.07-.15-.15v-21.63c0-.08.07-.15.15-.15h1.5c.08,0,.15.07.15.15v21.63h0Z"/>
  <path class="cls-1" d="M157.33,25.93v10.68c0,.23.28.33.42.16,1.19-1.37,2.68-1.88,4.45-1.52,2.84.58,3.32,2.64,3.27,5.38,0,.04,0,2.36,0,6.94,0,.08-.06.14-.14.14h-1.56c-.08,0-.15-.07-.14-.15.06-4.3.05-7.04-.04-8.21-.13-1.74-1.07-2.61-2.83-2.61-2.65,0-3.33,1.92-3.41,4.23-.05,1.34-.05,3.54,0,6.6,0,.08-.06.14-.13.14h-1.59c-.06,0-.11-.05-.11-.11v-21.68c0-.08.06-.14.13-.14h1.56c.07,0,.13.06.13.13h0Z"/>
  <path class="cls-1" d="M108.69,34.96s.04,0,.06.01c.03,0,.06.05.08.1l3.71,8.89c.04.09.17.1.22,0l3.93-8.36c.04-.08.13-.14.23-.14h1.73s.07.04.05.08l-5.92,12.59c-.05.09-.18.09-.22,0-.99-2.37-2.13-5.12-3.42-8.24-.15-.38-.3-.56-.45-.56s-.29.18-.44.56c-1.3,3.12-2.45,5.87-3.44,8.23-.04.1-.17.1-.22,0l-5.89-12.61s0-.08.05-.08h1.73c.1,0,.18.06.23.15l3.91,8.37c.04.09.18.09.22,0l3.73-8.88c.02-.05.05-.09.08-.1.02,0,.04-.01.07-.01h0Z"/>
  <path class="cls-1" d="M22.38,41.65c0,.75.05,1.24.13,1.49,1.26,3.71,5.81,4.58,8.29,1.63.07-.08.2-.03.2.07v1.82c0,.22-.13.42-.32.52-3.16,1.55-5.91,1.25-8.27-.9-1.32-1.2-1.98-2.74-1.98-4.62,0-1.88.65-3.43,1.96-4.63,2.34-2.16,5.1-2.47,8.26-.93.2.09.32.3.33.51v1.82c0,.11-.13.15-.2.07-2.49-2.94-7.03-2.05-8.28,1.66-.08.25-.12.74-.12,1.49h0Z"/>
  <path class="cls-1" d="M91.75,41.87h-9.37c-.3,0-.53.28-.47.58.64,3.09,2.4,4.42,5.28,3.96,1.44-.23,2.13-1.2,2.95-2.29.06-.08.17-.11.26-.07l1.22.57c.1.05.14.17.08.27-1.97,3.57-6.85,4.31-9.74,1.65-3.41-3.14-2.43-10.1,2.65-11.24,4.35-.98,7.31,2.14,7.42,6.27,0,.16-.12.29-.28.29M86.07,40.28c1.88,0,3.11,0,3.68-.01.14,0,.23-.14.18-.26-.79-2.11-2.08-3.16-3.84-3.17-1.77,0-3.06,1.04-3.86,3.15-.05.13.04.26.17.26.57.02,1.8.03,3.68.04h0Z"/>
  <path class="cls-1" d="M136.51,41.66c0-1.88.64-3.42,1.96-4.63,2.34-2.16,5.09-2.47,8.25-.94.2.09.32.3.33.51v1.82c0,.1-.12.15-.19.07-2.49-2.94-7.03-2.04-8.27,1.67-.08.24-.12.74-.12,1.49,0,.75.05,1.25.13,1.49,1.27,3.7,5.81,4.57,8.28,1.62.07-.08.2-.04.2.07v1.81c0,.22-.12.42-.32.52-3.15,1.55-5.9,1.26-8.26-.88-1.32-1.2-1.98-2.74-1.99-4.62h0Z"/>
  <path class="cls-1" d="M60.46,47.59c0,.07-.06.13-.13.13h-1.63c-.07,0-.13-.06-.13-.13v-12c0-.07.06-.13.13-.13h1.63c.07,0,.13.06.13.13v12h0Z"/>
  <path class="cls-1" d="M128.09,47.6c0,.07-.06.12-.12.12h-1.67c-.07,0-.12-.06-.12-.12v-12.01c0-.07.06-.12.12-.12h1.67c.07,0,.12.06.12.12v12.01h0Z"/>
</svg>