<?xml version="1.0" encoding="UTF-8"?>
<svg id="Layer_1" data-name="Layer 1" xmlns="http://www.w3.org/2000/svg" viewBox="0 0 186 74">
  <defs>
    <style>
      .cls-1 {
        fill: #1f2020;
      }
    </style>
  </defs>
  <path class="cls-1" d="M9.73,47.56c-.06,0-.08-.07-.03-.11.68-.5,1.02-1.04,1.02-1.62v-18.03c0-.83-.39-1.41-1.16-1.72-.14-.06-.1-.26.05-.26,1.41,0,3.27,0,5.58-.02,1.48,0,2.55.13,3.2.43,2.72,1.25,3.39,4.74.91,6.59-.57.42-.85.63-.86.64-.05.07-.01.17.07.19.4.08.99.31,1.77.67,5.24,2.46,5.25,9.18.3,11.96-1.47.83-3.13,1.25-4.97,1.27-3.12.04-5.08.04-5.88.02M12.68,27.19v5.97c0,.09.07.17.17.17h2.57c1.86,0,3.36-1.34,3.36-2.99v-.33c0-1.65-1.51-2.99-3.36-2.99h-2.57c-.09,0-.17.07-.17.17M12.67,34.67l.04,11.47c0,.07.06.12.12.12h3.26c3.42-.02,6.19-2.6,6.18-5.76v-.25c-.01-3.17-2.8-5.72-6.22-5.71h-3.26c-.07,0-.12.06-.11.13h0Z"/>
  <path class="cls-1" d="M36.61,32.14c.05-.05.13,0,.13.06v3.12c0,.15-.2.19-.26.05-.32-.83-.87-.71-1.6-.74-.27,0-1.67,0-4.2.02-.07,0-.13.06-.13.13v11.31c0,.08.07.15.15.14.74-.02,2.2-.03,4.38-.02.87,0,1.74-.2,2.43-.53.72-.35,1.25-.56,1.59-.63.09-.02.16.08.12.16l-1.25,2.16c-.06.11-.18.18-.3.18h-10.25c-.05,0-.1-.04-.1-.09,0-.05.03-.1.08-.11,1.04-.27,1.19-.95,1.17-2.06,0-.22,0-5.95,0-17.17,0-1.07-.3-1.68-1.21-2.09-.12-.05-.08-.23.05-.23h9.95c.1,0,.2.05.25.14.15.24.59.86,1.34,1.85.09.11.04.28-.09.34-.14.07-.28.05-.42-.04-1.17-.73-2.17-1.05-3.59-1.08-1.48-.03-2.86-.03-4.14,0-.08,0-.15.07-.15.15v5.95c0,.08.07.15.15.15,3.02,0,4.53,0,4.55,0,.52,0,.88-.2,1.06-.6.13-.29.23-.46.3-.52h0Z"/>
  <path class="cls-1" d="M50.51,41.44c-1.03-1.73-2.35-3.97-3.94-6.72-.06-.1-.17-.17-.29-.17h-.68c-.13-.01-.24.11-.21.24.02.13.02,3.64-.01,10.52,0,1,.16,1.57,1.01,1.98.1.05.07.2-.05.2h-3.92c-.1,0-.14-.14-.05-.19.76-.45,1.03-.83,1.03-1.81,0-3.78,0-9.38.01-16.8,0-1.37.11-2.2-1.19-2.65-.06-.02-.09-.07-.08-.13,0-.06.06-.1.12-.1,1.98,0,4.04-.02,6.19,0,3.62,0,6.88,2.58,4.92,6.34-.69,1.33-2.07,2.15-3.6,2.32-.43.05-.75.08-.94.11-.11.02-.17.14-.12.24,2.13,3.72,4.02,7.04,5.67,9.97.62,1.1,1.07,2.05,2.06,2.62.06.03.04.13-.03.13h-3.9c-.09,0-.12-.12-.05-.17.54-.36,1.15-.87.7-1.59-1-1.6-1.88-3.05-2.65-4.33M45.41,27.19l-.05,5.94c0,.1.07.17.17.17l2.97.03c1.91.02,3.46-1.28,3.48-2.89v-.46c.02-1.61-1.51-2.93-3.42-2.94l-2.97-.03c-.1,0-.17.08-.18.17h0Z"/>
  <path class="cls-1" d="M71.65,43.4s.1.02.1-.03c0-5.07,0-9.86,0-14.36,0-1.42.18-2.31-.99-2.95-.12-.07-.07-.25.07-.25h3.09c.17,0,.21.24.06.3-.8.32-1.02.85-1.02,1.75,0,.54,0,7.02,0,19.45,0,.12-.09.23-.2.25-.24.05-.48.03-.69-.07-.07-.03-.13-.09-.16-.15l-10.11-17.51c-.04-.06-.13-.04-.13.04,0,4.69,0,9.85.01,15.48,0,1,.15,1.55.99,2.04.09.05.05.19-.05.19h-3.13c-.12,0-.16-.16-.06-.22.77-.43,1.02-.9,1.02-1.85.03-6.71.03-12.52,0-17.46,0-.91-.36-1.6-1.04-2.08-.07-.04-.03-.15.05-.15h1.91c.1,0,.19.05.24.13l10.08,17.46h0Z"/>
  <path class="cls-1" d="M78.24,43.37c2.74-9.26,4.44-15.03,5.11-17.32.11-.39.66-.39.78,0,3.7,12.37,5.66,18.95,5.89,19.73.2.66.68,1.19,1.45,1.6.05.02.03.09-.02.09h-3.74c-.11,0-.15-.13-.07-.2.93-.72.52-1.48.18-2.58-.51-1.67-.79-2.56-.82-2.67-.02-.09-.1-.15-.19-.15h-6.8c-.07,0-.13.04-.15.11-.46,1.59-.79,2.74-1,3.46-.24.83-.25,1.4.45,1.87.11.07.06.24-.07.24h-3.19c-.13,0-.17-.18-.05-.24.6-.26,1.06-.65,1.38-1.17.39-.64.56-1.77.85-2.77M80.24,40.57c-.02.07.03.13.09.13h5.98c.06,0,.11-.07.09-.14l-3.01-10.13c-.03-.09-.16-.09-.19,0l-2.97,10.14h0Z"/>
  <path class="cls-1" d="M111.15,26.05c-.12-.05-.09-.23.04-.24.57-.02,2.32-.02,5.24,0,6.58.02,11.1,5.51,10.53,11.82-.47,5.19-4.84,9.68-10.22,9.83-1.89.05-3.68.06-5.37.04-.12,0-.16-.16-.05-.22.74-.37,1-.9,1-1.77,0-10.76,0-16.27,0-16.52,0-1.46.19-2.41-1.17-2.92M114.31,27.42l.1,18.66c0,.1.08.19.19.19h1.38c5.04-.03,9.09-4.14,9.07-9.19v-.77c-.03-5.04-4.14-9.11-9.17-9.09h-1.38c-.1,0-.19.09-.19.2h0Z"/>
  <path class="cls-1" d="M129.08,43.4c2.74-9.29,4.45-15.08,5.12-17.37.11-.39.66-.39.78,0,3.72,12.41,5.69,19,5.92,19.79.2.66.68,1.19,1.45,1.6.05.02.03.1-.02.1h-3.75c-.11,0-.15-.13-.07-.2.93-.72.52-1.49.18-2.59-.52-1.68-.79-2.57-.82-2.67-.02-.09-.1-.15-.2-.15h-6.82c-.07,0-.13.04-.15.11-.46,1.59-.79,2.75-1,3.47-.24.83-.25,1.4.45,1.87.11.07.06.24-.07.24h-3.19c-.13,0-.17-.18-.05-.24.61-.26,1.07-.65,1.38-1.17.39-.64.56-1.78.85-2.77M134.19,40.68c1.11,0,2.1,0,2.98-.01.07,0,.11-.06.1-.12l-3.07-10.29s-.02,0-.03,0h-.02s-.03,0-.03,0l-2.99,10.31c-.02.06.03.12.1.12.87,0,1.87,0,2.98-.01h0Z"/>
  <path class="cls-1" d="M143.24,26.01c-.1-.06-.06-.2.06-.2h3.8c.15,0,.18.2.05.25-.67.27-1.01.76-1.01,1.5.02,8.32.02,12.58.02,12.77-.03,3.1,1.99,6.61,5.51,6.14,3.12-.42,4.06-3.1,4.06-5.99v-12.85c0-.72-.33-1.24-.98-1.54-.14-.07-.09-.28.06-.28h3.1c.17,0,.21.24.05.3-.68.25-1.02.74-1.02,1.46,0,1.1,0,5.61-.01,13.53,0,.61-.13,1.37-.38,2.27-.94,3.33-3.67,4.83-7.2,4.21-2.7-.47-4.41-2.47-4.9-5.05-.14-.75-.21-1.77-.21-3.04,0-3.48.01-7.38,0-11.7,0-.97-.27-1.36-1-1.79h0Z"/>
  <path class="cls-1" d="M160.69,26.06c-.13-.05-.09-.23.04-.24.57-.02,2.31-.02,5.23,0,6.58.03,11.09,5.51,10.52,11.81-.47,5.18-4.84,9.67-10.21,9.82-1.89.05-3.68.06-5.36.04-.12,0-.16-.16-.05-.22.74-.37.99-.9.99-1.77,0-10.75,0-16.25,0-16.51,0-1.46.19-2.41-1.16-2.92M163.73,27.34l.03,18.8c0,.07.05.12.12.12h1.49c5.02-.01,9.09-4.09,9.08-9.1v-.87c0-5.01-4.09-9.08-9.11-9.07h-1.49c-.07,0-.12.06-.12.12h0Z"/>
  <path class="cls-1" d="M102.46,41.5c-1.04-1.73-2.36-3.97-3.96-6.72-.06-.1-.17-.17-.29-.17h-.68c-.14-.01-.24.11-.21.24.02.13.02,3.64,0,10.53,0,1,.16,1.57,1.02,1.98.1.05.07.2-.05.2h-3.93c-.1,0-.14-.13-.05-.18.76-.45,1.03-.84,1.03-1.81,0-3.78-.02-9.39-.01-16.82,0-1.37.1-2.2-1.19-2.65-.06-.02-.09-.07-.08-.13,0-.06.06-.1.12-.1,1.98-.02,4.05-.02,6.2-.02,3.62,0,6.89,2.58,4.94,6.35-.69,1.33-2.07,2.15-3.6,2.32-.43.05-.75.09-.94.11-.11.02-.17.14-.12.24,2.14,3.72,4.04,7.04,5.7,9.97.63,1.1,1.08,2.05,2.06,2.62.06.03.04.13-.03.13h-3.91c-.09,0-.12-.11-.05-.16.54-.36,1.15-.87.7-1.59-1-1.6-1.89-3.05-2.66-4.33M97.34,27.2l-.06,5.9c0,.11.08.19.19.19l2.98.03c1.9.02,3.45-1.28,3.47-2.92v-.38c.02-1.63-1.5-2.97-3.4-2.99l-2.98-.03c-.11,0-.2.08-.2.19h0Z"/>
</svg>