<?xml version="1.0" encoding="UTF-8"?>
<svg id="Layer_1" data-name="Layer 1" xmlns="http://www.w3.org/2000/svg" viewBox="0 0 186 74">
  <path d="M13.36,45.89v-14.44s3.64-.01,3.64-.01l.06,2.73c1.61-.5,1.46-2.72,5.12-3.1,3.27-.34,6.19,1.79,6.38,5.31.17,3.2.09,6.39.1,9.6h-3.7s-.04-9.02-.04-9.02c0-.93-.68-2.1-1.34-2.47-.83-.46-2-.61-2.99-.14-1.82.85-3.44,3.03-3.46,5.15l-.07,6.49-3.69-.09Z"/>
  <path d="M172.63,26.89v1.87c-.65,1.17-1.85,1.95-3.26,1.69s-2.27-1.34-2.27-2.73.98-2.59,2.5-2.74c1.27-.13,2.39.62,3.03,1.92ZM169.44,25.6c-1.45.26-1.95,1.6-1.67,2.73.29,1.18,1.4,1.74,2.54,1.55,1.24-.2,1.92-1.34,1.7-2.62-.18-1.07-1.21-1.91-2.57-1.66Z"/>
  <path d="M81.63,45.93l-4.86.04-10.81-15.78c-.1-.15-.36-.47-.48-.42l-.71.28c.68,2.57,1.18,5.14,1.19,7.87v8.06s-3.81-.02-3.81-.02v-21.03s4.84,0,4.84,0l11.12,16.21.89-.26c-.6-2.45-1.15-4.73-1.16-7.2l-.05-8.76h3.83s0,21,0,21Z"/>
  <path d="M91.12,43.29c1.75.15,3.3-.42,4.31-1.91l2.65,1.44c-1.27,2.47-3.91,3.58-6.66,3.58-4.49,0-7.59-3.28-7.61-7.67s3.07-7.77,7.61-7.77c3.56,0,6.65,2.15,7.26,5.82.15.91.15,2,.15,3.06h-11.22c.1,1.89,1.59,3.28,3.5,3.44ZM95.12,37.15c-.39-2.3-2.05-3.19-3.84-3.15s-3.37,1.18-3.68,3.17l7.51-.02Z"/>
  <path d="M149.9,46.38c-3.03.26-5.35-1.8-5.42-4.75-.06-2.25,1.43-4.35,3.84-4.41l6-.16c.1-1.15-.48-2.58-1.68-2.95-1.81-.55-3.56.3-4.46,1.97l-3-.96c1.5-4.57,7.89-5.23,10.95-2.68,1.29,1.07,1.92,2.98,1.93,4.68l.05,8.84h-3.53s-.24-2.35-.24-2.35c-1.25,1.7-2.38,2.6-4.43,2.78ZM154.48,39.72l-4.97.03c-.96,0-1.83.88-1.77,1.73.05.78.63,1.61,1.48,1.81,2.54.62,5.54-1.33,5.27-3.58Z"/>
  <path d="M44.22,44.24c-2.96,3.02-8.05,2.93-10.94.06s-2.98-8.17,0-11.13,7.97-2.92,10.89-.01,3.04,8.05.05,11.09ZM42.67,38.59c-.04-2.67-1.77-4.47-4.2-4.34s-3.68,2.07-3.69,4.47,1.5,4.48,3.94,4.48c2.43,0,3.99-1.93,3.95-4.61Z"/>
  <path d="M116.45,31.45v14.52s-3.62.02-3.62.02l-.04-2.38c0-.13-.4-.37-.52-.3-.67.38-1.31,2.82-4.75,3.08-3.12.24-5.98-1.69-6.24-5.09-.24-3.2-.09-6.42-.13-9.81l3.69-.04.04,8.9c0,.95.59,2.17,1.28,2.58.86.51,2.12.65,3.16.12,1.78-.9,3.35-3.06,3.37-5.15l.07-6.42,3.67-.02Z"/>
  <path d="M129.96,43v2.99s-4.32-.02-4.32-.02c-1.83,0-3.01-1.5-3.01-3.25v-8.28s-3.63.03-3.63.03v-3.02s3.63,0,3.63,0v-4.52s3.71-.01,3.71-.01v4.52s4,.04,4,.04l-.02,2.96-3.98.03.03,8.44,3.59.1Z"/>
  <path d="M58.18,42.99v3.01s-4.49-.04-4.49-.04c-1.61-.02-2.84-1.41-2.85-2.99v-8.5s-3.61-.01-3.61-.01l-.03-2.99h3.62s0-4.52,0-4.52l3.72-.03v4.52s3.98.02,3.98.02v3.01s-3.99-.03-3.99-.03l.04,8.48,3.6.07Z"/>
  <rect x="161.39" y="25.44" width="3.72" height="20.53" transform="translate(-.04 .17) rotate(-.06)"/>
  <path d="M133.77,45.96v-14.47s3.61-.03,3.61-.03l.08,2.2c.06.14.77-.11.88-.32.96-1.82,2.99-2.86,5.2-2.32v3.38c-2.72-.28-4.99,1.44-6.08,3.9v7.67s-3.68,0-3.68,0Z"/>
  <path d="M170.81,29.27l-.54-.87c-.11-.17-.53-.37-.63-.18l-.62,1.2-.15-3.26,2.14.32-.21,2.79Z"/>
</svg>