<?xml version="1.0" encoding="UTF-8"?>
<svg id="Layer_1" data-name="Layer 1" xmlns="http://www.w3.org/2000/svg" viewBox="0 0 186 74">
  <defs>
    <style>
      .cls-1 {
        fill: #bf8864;
      }
    </style>
  </defs>
  <path class="cls-1" d="M85.84,27.96c0,4.31-.97,8.91-3.97,12.17-2.49,2.7-5.66,3.83-9.31,3.94-1.49.04-2.88-.08-4.19-.37-4.78-1.06-7.84-4.36-9.2-8.97-.65-2.18-.89-4.46-.89-6.77,0-2.31.25-4.58.9-6.77,1.37-4.61,4.43-7.91,9.21-8.97,1.3-.29,2.7-.41,4.19-.37,3.64.11,6.82,1.24,9.3,3.94,3.01,3.26,3.97,7.85,3.97,12.17M63.15,27.96c0,2.87.18,5.76.82,8.53.28,1.21.7,2.33,1.28,3.38,1.44,2.65,3.85,3.74,6.8,3.75,2.94,0,5.36-1.09,6.8-3.74.57-1.05,1-2.17,1.28-3.38.65-2.77.83-5.66.84-8.53,0-2.87-.18-5.76-.82-8.53-.28-1.21-.71-2.33-1.28-3.38-1.44-2.65-3.85-3.74-6.8-3.75-2.94,0-5.36,1.09-6.8,3.74-.57,1.05-1,2.17-1.28,3.38-.65,2.77-.83,5.66-.84,8.53h0Z"/>
  <path class="cls-1" d="M93.54,34.94s.06.03.06.06c0,1.25.14,2.44.39,3.59.56,2.55,1.93,4.52,4.69,4.94,2.77.42,5.63-.46,6.89-3.08.72-1.5.8-3.64.4-5.29-.35-1.45-1.44-2.56-2.72-3.36-1.17-.73-2.37-1.34-3.64-1.93-1.25-.59-2.41-1.17-3.48-1.76-1.26-.69-2.56-1.64-3.44-2.73-.97-1.21-1.54-2.58-1.7-4.13-.31-2.88.33-5.64,2.67-7.48,2.16-1.69,5.15-2.01,7.79-1.83,1.99.14,3.97.71,5.54,1.9,1.12.86,1.99,2.21,1.68,3.68-.32,1.52-1.93,2.18-3.37,2.14-.04,0-.06-.03-.06-.07.03-2.16-.32-5.39-2.42-6.61-1.31-.76-3.15-.8-4.57-.38-2.92.86-3.78,3.48-3.66,6.27.06,1.33.37,2.57,1.22,3.6.5.62,1.12,1.14,1.84,1.56,1.82,1.08,3.31,1.76,5.64,2.88.69.33,1.55.8,2.58,1.41,1.33.78,2.38,1.8,3.15,3.05.98,1.6,1.1,3.96.79,5.81-1.04,6.16-7.66,7.48-12.82,6.68-3.31-.51-6.92-2.5-6.51-6.43.18-1.73,1.47-2.46,3.08-2.5h0Z"/>
  <path class="cls-1" d="M117.38,34.94s.06.03.06.06c0,1.25.14,2.44.39,3.59.56,2.55,1.93,4.52,4.69,4.94,2.77.42,5.63-.46,6.89-3.08.72-1.5.8-3.64.4-5.29-.35-1.45-1.44-2.56-2.72-3.36-1.17-.73-2.37-1.34-3.64-1.93-1.25-.59-2.41-1.17-3.48-1.76-1.26-.69-2.56-1.64-3.44-2.73-.97-1.21-1.54-2.58-1.7-4.13-.31-2.88.33-5.64,2.67-7.48,2.16-1.69,5.15-2.01,7.79-1.83,1.99.14,3.97.71,5.54,1.9,1.12.86,1.99,2.21,1.68,3.68-.32,1.52-1.93,2.18-3.37,2.14-.04,0-.06-.03-.06-.07.03-2.16-.32-5.39-2.42-6.61-1.31-.76-3.15-.8-4.58-.38-2.92.86-3.78,3.48-3.66,6.27.06,1.33.37,2.57,1.22,3.6.5.62,1.12,1.14,1.84,1.56,1.82,1.08,3.31,1.76,5.64,2.88.69.33,1.55.8,2.58,1.41,1.33.78,2.39,1.8,3.15,3.05.98,1.6,1.1,3.96.79,5.81-1.04,6.16-7.66,7.48-12.82,6.68-3.31-.51-6.92-2.5-6.51-6.43.18-1.73,1.47-2.46,3.08-2.5h0Z"/>
  <path class="cls-1" d="M139.71,12.36s-.02-.01-.01-.02c0,0,0-.02.02-.02h19.96s.07.03.07.07c-.04.35-.19.61-.45.79-.15.1-.45.15-.89.15-2.57,0-5.91.01-10.04,0-.7,0-1.72.08-2.03.86-.05.13-.08.36-.08.7,0,3.51,0,7.01,0,10.5,0,1.24,1.32,1.34,2.23,1.34,2.58,0,5.06,0,7.42,0,.52,0,.84.04.95.12.24.18.37.46.39.82,0,.03-.03.06-.06.06-4.49,0-7.36,0-8.59,0-.92,0-2.33.06-2.33,1.33,0,7.61,0,11.48,0,11.61,0,.54.01.86.04.97.23.91,1.37.99,2.14.99,2.76,0,6.24,0,10.42,0,.03,0,.06,0,.09.01.47.12.73.43.79.92,0,.03-.02.06-.05.06h-19.22s-.02,0-.02-.02c0-.01,0-.02.01-.02.59-.21.99-.57,1.2-1.09.11-.27.16-.8.16-1.59,0-6.7,0-15.08,0-25.13,0-1.44-.46-3.13-2.11-3.44h0Z"/>
  <path class="cls-1" d="M48.71,37.72c.02-.1.03-.22.03-.34,0-4.38,0-12.37,0-23.98,0-.59.3-.95.91-1.08.04,0,.08.02.08.07,0,3.01,0,10.85,0,23.54,0,.1,0,.2,0,.31.02,1.72.02,3.76,0,6.13,0,.41-.03.67-.09.78-.29.59-1.14.64-1.5.09-11.7-17.53-17.94-26.89-18.73-28.08-.02-.03-.06-.01-.06.02,0,.34,0,9.47,0,27.38,0,.56-.29.92-.87,1.07-.06.02-.12-.03-.12-.09,0-4.48,0-13.72,0-27.73,0-1.44-.46-3.14-2.11-3.46,0,0-.01,0-.01-.02,0,0,0-.01.02-.01,1.28,0,2.22,0,2.79,0,1.11-.01,1.85.03,2.22.14.74.22,1.39.56,1.94,1.04.27.23.69.78,1.27,1.64,5.09,7.63,9.31,13.96,12.68,19.01.74,1.11,1.43,2.27,1.53,3.57,0,0,0,0,0,0s0,0,0,0h0Z"/>
  <path class="cls-1" d="M88.79,55.04s.03,0,.04.02c1.1,2.31,2.2,4.63,3.31,6.95,0,0,0,.01,0,.01h-.78s-.04-.01-.04-.03l-.78-1.71s-.04-.05-.08-.06c-.01,0-.56,0-1.65,0-1.09,0-1.64,0-1.65,0-.03,0-.06.03-.08.06l-.78,1.71s-.02.03-.04.03h-.78s-.01,0,0-.01c1.11-2.32,2.21-4.64,3.3-6.96,0-.02.02-.02.04-.02M87.39,59.49s0,.04.03.04h2.75s.04-.02.03-.04l-1.37-3.05s-.05-.02-.06,0l-1.37,3.05h0Z"/>
  <path class="cls-1" d="M60.25,58.61c0-1.83,1.64-3.59,3.52-3.54,1.04.03,1.92.39,2.65,1.08.02.02.02.06,0,.08l-.47.47s-.05.02-.07,0c-.58-.6-1.29-.91-2.13-.93-1.44-.03-2.69,1.47-2.69,2.84s1.26,2.88,2.69,2.84c.84-.02,1.55-.33,2.13-.93.02-.02.05-.02.07,0l.47.47s.02.06,0,.08c-.72.69-1.61,1.05-2.65,1.08-1.87.05-3.52-1.71-3.52-3.55h0Z"/>
  <path class="cls-1" d="M111.84,58.61c0,1.38,1.26,2.88,2.7,2.84.84-.02,1.55-.33,2.13-.94.02-.02.05-.02.07,0l.47.47s.02.06,0,.08c-.72.69-1.61,1.05-2.65,1.08-1.87.05-3.52-1.71-3.52-3.54,0-1.83,1.64-3.59,3.52-3.55,1.04.03,1.92.39,2.65,1.08.02.02.02.06,0,.08l-.47.47s-.05.02-.07,0c-.58-.6-1.29-.91-2.13-.93-1.44-.03-2.69,1.47-2.69,2.85h0Z"/>
  <path class="cls-1" d="M119.96,61.32s-.03-.05-.01-.07l.35-.5s.05-.03.08-.01c.82.54,1.7.77,2.64.69.65-.06,1.33-.33,1.44-1.06.13-.87-.48-1.16-1.25-1.32-.26-.06-.63-.12-1.1-.19-.38-.06-.78-.19-1.21-.4-.45-.22-.69-.6-.73-1.15-.07-1.1.75-1.96,1.8-2.14,1.25-.22,2.19.14,3.21.77.03.02.04.07.02.1l-.33.48s-.06.04-.09.01c-.66-.53-1.41-.77-2.27-.72-.72.04-1.41.34-1.56,1.11-.41,2.12,4.48.39,4.28,3.35-.08,1.15-1.05,1.81-2.14,1.88-1.17.08-2.21-.19-3.13-.81h0Z"/>
  <path class="cls-1" d="M69.64,61.98v-6.74s.02-.04.04-.04h4.58s.04.02.04.04v.6s-.02.04-.04.04h-3.8s-.04.02-.04.04v2.26s.02.04.04.04h3.8s.04.02.04.04v.61s-.02.04-.04.04h-3.8s-.04.02-.04.04v2.33s.02.04.04.04h3.8s.04.02.04.04v.6s-.02.04-.04.04h-4.58s-.04-.02-.04-.04h0Z"/>
  <path class="cls-1" d="M78.6,62s-.01.03-.03.03h-.75s-.02-.01-.02-.02v-6.75s.02-.05.05-.05c1.5,0,2.41,0,2.74,0,.32,0,.67.1,1.05.28.91.43,1.13,1.31.98,2.24-.13.78-.66,1.3-1.41,1.51-.04.01-.05.05-.03.09l1.8,2.68s0,.01,0,.01h-.92s-.03,0-.04-.02l-1.67-2.61s-.05-.04-.08-.04h-1.62s-.04.02-.04.04v2.61M78.6,55.9v2.75s.01.03.03.03h1.88c.77,0,1.39-.57,1.39-1.28v-.25c0-.71-.62-1.28-1.39-1.28h-1.88s-.03.01-.03.03h0Z"/>
  <path class="cls-1" d="M99.04,61s0,0,.01,0c0,0,.01,0,.02-.01l3.04-5.74s.08-.07.12-.06c.04,0,.07,0,.11,0,.05-.01.09.02.1.07l.82,6.74s0,.03-.02.03h-.73s-.03-.01-.03-.03l-.48-5.1s-.03-.03-.04,0l-2.65,5.07s-.04.05-.07.06h-.19c-.12,0-.19,0-.19,0-.03,0-.06-.03-.07-.06l-2.65-5.07s-.04-.01-.04,0l-.48,5.1s-.02.03-.03.03h-.73s-.03-.01-.02-.03l.83-6.74s.05-.08.1-.07c.03.01.07.01.11,0,.05-.01.1.01.12.06l3.04,5.74s0,.01.02.01c0,0,0,0,.01,0h0Z"/>
  <path class="cls-1" d="M107.63,61.98s-.02.04-.04.04h-.69s-.04-.02-.04-.04v-6.74s.02-.04.04-.04h.69s.04.02.04.04v6.74h0Z"/>
</svg>