<?xml version="1.0" encoding="UTF-8"?>
<svg id="Layer_1" data-name="Layer 1" xmlns="http://www.w3.org/2000/svg" viewBox="0 0 186 74">
  <defs>
    <style>
      .cls-1 {
        fill: #d62027;
      }

      .cls-2 {
        fill: #3774b9;
      }

      .cls-3 {
        fill: #050505;
      }
    </style>
  </defs>
  <g>
    <path class="cls-3" d="M127.49,31.41c.52.39,1.11.51,1.78.35.09-.02.15-.1.14-.19,0-.09-.08-.17-.17-.17-.38-.03-.74,0-.98-.2-.58-.49.19-1.62.51-2.18.18-.31-.07-.68-.42-.63-1.22.17-1.74.93-1.57,2.28.01.09,0,.19-.06.26-1.4,1.92-4.43,5.66-6.89,5.73-.34,0-.62-.27-.61-.61,0-.29.1-.59.3-.89,1.56-2.41,3.4-4.77,5.52-7.08.12-.13.26-.24.42-.32,3.25-1.69,6.3-3.7,9.15-6.02.95-.77,2.34-2.15,2.56-3.38.06-.3-.12-.6-.42-.7-2.14-.72-5.51,1.97-6.95,3.4-1.37,1.07-2.49,2.26-3.36,3.55-2.24,2.13-4.31,4.4-6.21,6.79-.89,1.12-1.7,2.37-2.41,3.75-.35.68-.29,1.24.19,1.7.07.07.16.13.26.17,3.39,1.31,6.97-3.29,8.93-5.56.07-.09.2-.1.3-.03ZM135.84,18.11c.23-.02.43.17.41.41-.12,1.1-2.46,3.1-3.34,3.8-2.05,1.63-4.22,3.11-6.52,4.42.01-.16.06-.24.15-.25,2.24-2.86,4.79-5.38,7.65-7.58.62-.47,1.17-.74,1.65-.79Z"/>
    <path class="cls-3" d="M105.97,22.75c-.08-.11-.06-.27.06-.34l2.7-1.56c.06-.03.08-.11.05-.17l-.08-.13c-.05-.08-.14-.1-.22-.06l-2.85,1.64c-.08.05-.19.05-.27-.02-4.63-3.49-11.74-1.99-15.68,1.89-1.72,1.69-3.19,4.63-1.26,6.65.32.33.76.58,1.33.74,3.25.95,6.42-1.4,7.69-4.26.22-.5.27-1.13.15-1.88-.02-.11-.12-.2-.23-.2s-.22.08-.24.2c-.42,2.37-1.7,4.15-3.85,5.34-.86.48-2.11.71-2.97.35-1.97-.81-1.59-3.22-.73-4.77,2.36-4.26,7.3-6.29,11.98-5.35,1.23.25,2.24.79,3.03,1.63.06.07.05.18-.02.23-1.96,1.37-3.69,3.04-5.21,4.97-2.74,3.5-5.02,6.85-8.65,8.33-.07.03-.15.05-.22.04l-6.87-.19c-.29,0-.47.29-.34.55.45.87,3.15.82,3.93.71,1.29-.18,2.02-.27,2.22-.29.11,0,.21,0,.32.01.4.06,1.7.18,3.89.37,2.89.25,5.54-.4,7.97-1.95,3.88-2.48,7.93-8,4.37-12.52ZM101.02,34.64c-2.6,2.23-5.69,1.73-8.85,1.52-.13,0-.16-.19-.03-.23,5.03-1.53,7.16-5.14,10.43-9.74.74-1.04,1.62-1.95,2.45-2.78.09-.09.25-.06.29.06,1.38,4.04-1.36,8.64-4.3,11.17Z"/>
    <path class="cls-3" d="M41.88,33.78c1.64-.73,3.06-1.47,4.28-2.2.33-.2.62-.45.84-.74.1-.13-.06-.31-.2-.23l-4.45,2.57c-.08.05-.17-.04-.12-.12,1.3-2.25,2.54-4.27,3.74-6.06,1.47-2.21,3.5-4.56,5.88-5.68.07-.04.16-.06.24-.07l1.99-.3c.15-.02.27-.15.29-.3v-.07c.02-.16-.12-.3-.28-.28-.89.11-1.68.29-2.36.52-.12.04-.24.07-.36.09-1.49.2-2.7.35-3.63.47-3.2.4-10.03,2.36-9.81,6.6.06,1.09.65,1.88,1.77,2.38.17.07.32-.14.19-.27-2.42-2.39.8-5.29,2.82-6.31,2.35-1.18,4.82-1.92,7.42-2.23.04,0,.06.02.07.05,0,.04,0,.07-.04.08-2.82,1.36-5.2,3.6-7.12,6.71-1.99,3.23-3.1,5.08-3.32,5.54-.05.1-.13.18-.23.22-3.49,1.54-7.19,3.13-10.13,5.34-1.08.81-1.88,1.61-2.4,2.38-.99,1.46-1.19,3.27,1.11,3.45,3.21.26,6.1-1.76,8.25-4.09,2.01-2.19,3.78-4.59,5.3-7.22.06-.1.15-.18.26-.23ZM27.94,44.55c-.86-1,.75-2.93,1.5-3.69.71-.72,1.56-1.41,2.53-2.07,1.99-1.35,4.37-2.64,7.14-3.89.04-.04.06-.04.08-.02.02.03.01.05-.03.08-1.65,2.56-3.29,4.72-4.92,6.48-.8.86-1.61,1.59-2.43,2.19-.87.63-3.01,1.93-3.87.92Z"/>
    <path class="cls-3" d="M158.44,24.69c-.72,0-1.31.58-1.31,1.31s.58,1.31,1.31,1.31,1.31-.58,1.31-1.31-.58-1.31-1.31-1.31ZM158.44,27.1c-.62,0-1.12-.5-1.12-1.12s.5-1.12,1.12-1.12,1.12.5,1.12,1.12-.5,1.12-1.12,1.12Z"/>
    <path class="cls-3" d="M155.69,28.6l-2.82-.08c-.09,0-.13-.1-.07-.17l2.79-3.03c.22-.24.02-.63-.31-.58l-.98.15c-.22.03-.42.14-.58.31l-3.07,3.34s-.09.06-.15.06l-1.93-.05c-.13,0-.24.07-.29.19l-.04.1c-.03.08.03.18.12.18l1.77.05c.08,0,.12.09.07.15-.15.19-1.15,1.4-3.01,3.65-.91,1.1-1.47,1.98-1.67,2.64-.57,1.87,1.69,1.8,2.73,1.42.95-.34,1.86-.93,2.73-1.74.1-.09.11-.24.02-.34h0c-.08-.11-.23-.11-.32-.03-.73.68-2.42,1.97-3.34,1.75-.25-.06-.39-.32-.3-.57.16-.4.39-.81.69-1.22,1.34-1.84,2.86-3.72,4.56-5.65.06-.06.14-.1.22-.09l2.81.07c.12,0,.24-.05.32-.14l.14-.15c.08-.09.02-.23-.1-.23Z"/>
    <path class="cls-3" d="M158.92,25.56c-.04.09-.11.19-.21.28-.12.11-.31.13-.45.04-.14-.09-.18-.25-.1-.39.09-.16.26-.19.5-.08.05.02.11,0,.13-.06h0s-.01-.1-.06-.11c-.11-.02-.31-.02-.59-.01-.11,0-.2.09-.2.2v1.27s0,.04.01.05c.12.11.18-.04.18-.43,0-.1.07-.19.18-.21.1-.02.19.01.25.09.06.06.08.14.09.21.02.14.06.22.14.24.09.02.16-.08.11-.16-.18-.28-.13-.53.17-.75.03-.02.04-.05.03-.08,0-.06-.03-.1-.08-.13-.04-.03-.08-.01-.1.03Z"/>
    <path class="cls-3" d="M146.73,27.48c-1.46-.25-2.44.31-2.93,1.66-.04.1-.11.19-.2.25l-3.72,2.31c-.1.06-.13.21-.05.31l.07.09c.05.06.13.07.2.04l3.24-1.96c-.9,2.17-1.98,6.9-5.24,6.6-.72-.07-1.18-.42-1.36-1.06-.03-.11,0-.22.07-.3l1.19-1.3c.27-.3.09-.77-.3-.82-.39-.05-.76.08-1.11.37-1.09.91-1.06,2.6.31,3.24.59.28,1.18.4,1.75.36,4.28-.25,5.31-3.52,6.14-7.04.08-.35.28-.66.55-.89l1.54-1.26c.22-.18.13-.54-.16-.58Z"/>
    <path class="cls-3" d="M75.32,28.44c-1.26-.4-2.54.37-3.6,1.17-.49.37-1.38,1.2-2.68,2.48-.09-.02-.18-.05-.27-.07l2.62-3.17c.07-.08.01-.21-.1-.22l-3.29-.09c-.13,0-.25.1-.25.24v.09c0,.09.07.17.16.18l1.4.04c.07,0,.12.09.07.15-.93,1.32-1.62,2.25-2.08,2.79-1.56,1.81-2.85,3.35-3.86,4.62-.16.19,0,.48.25.45l.72-.09c.44-.06.83-.27,1.12-.59,2.3-2.57,4.31-4.59,6.03-6.05.87-.74,1.66-1.26,2.36-1.54.36-.14.72.18.62.55-.15.56-1.91,2.16-3.31,3.57-.68.69-1.18,1.4-1.51,2.14-.36.81-.12,1.87.96,1.98,1.67.17,3.31-.77,4.39-1.93.07-.07.09-.19.05-.28v-.03c-.05-.08-.16-.11-.23-.05-1.12.86-2.09,1.74-3.34,1.82-.34.02-.6-.31-.49-.64.18-.54.45-1,.82-1.39,1.18-1.27,2.32-2.56,3.43-3.86.37-.43.57-.88.62-1.35.04-.4-.21-.78-.61-.9Z"/>
    <path class="cls-3" d="M51.27,28.75c-2.87,1.2-4.98,3.18-6.32,5.95-.59,1.23.04,2.23,1.4,2.45,2.16.36,4.4-.71,5.99-2.14.04-.04.05-.1.02-.15l-.07-.13c-.04-.06-.13-.08-.19-.04-.9.66-1.59,1.1-2.05,1.35-.76.4-2.3.94-3.14.53-.33-.16-.47-.59-.33-1.01.31-.93.79-1.8,1.46-2.61.07-.08.16-.13.26-.15,2.16-.35,4.55-.95,5.96-2.67.49-.6.69-1.39-.26-1.66-.82-.23-1.73-.13-2.72.29ZM52.27,30.87c-.81.56-1.99,1.04-3.53,1.47-.04,0-.07,0-.09,0-.01,0-.03-.02-.04-.04,0-.01-.02-.03-.02-.05,0-.02,0-.05.03-.08,1.01-1.24,1.93-2.12,2.77-2.64,1.17-.73,1.9-.88,2.17-.46.27.42-.16,1.02-1.3,1.8Z"/>
    <path class="cls-3" d="M135.88,32.49c.09-.13.26-.17.41-.11l.28.11c.11.05.22-.05.2-.16l-.1-.66s0-.09.02-.14l.74-1.8c.04-.08.05-.18.04-.27-.12-1.52-2.05-1.18-3.02-.74-2.65,1.22-4.69,3.05-6.13,5.49-.36.61-.73,1.9-.07,2.49.37.33.76.49,1.17.48,2.89-.1,4.82-2.47,6.45-4.7ZM136.47,28.87c.13,0,.15.19.03.23-.96.34-.97,1.09-.94,1.96.03.55-.16,1.1-.56,1.63-1.03,1.38-3.56,4.37-5.1,3.91-.32-.09-.5-.43-.4-.75.72-2.28,4.7-7.08,6.95-6.99Z"/>
    <path class="cls-3" d="M116.97,35.02s.04-.11,0-.16l-.09-.09c-.06-.05-.14-.05-.19,0-.76.66-2.47,1.96-3.37,1.81-.36-.06-.57-.45-.4-.78.28-.55.7-1.17,1.25-1.86.77-.94,2.2-2.56,4.29-4.84.22-.25.02-.64-.31-.59l-.92.14c-.43.06-.82.29-1.09.62-2.08,2.55-4.05,4.83-6.78,6.84-.39.29-.82.45-1.27.49-.35.03-.6-.32-.45-.64.31-.68.81-1.42,1.49-2.2,1.68-1.92,3.07-3.46,4.17-4.63.23-.25.02-.65-.32-.6l-1.07.16c-.31.05-.6.2-.81.44-1.78,1.98-3.13,3.6-4.02,4.87-.54.76-.84,1.3-.9,1.61-.2,1.02.19,1.52,1.2,1.52,1.77,0,3.03-1.12,4.28-2.32.03-.03.07-.03.1,0,.03.02.04.06.02.09-.19.39-.31.72-.35,1-.19,1.21,1.13,1.38,1.98,1.2,1.37-.3,2.56-.99,3.57-2.07Z"/>
    <path class="cls-3" d="M63.69,34.87l-.02-.02c-.07-.1-.21-.11-.3-.03-.61.57-2.45,2.03-3.26,1.74-.32-.12-.44-.55-.23-.89.32-.54.71-1.09,1.21-1.67,1.18-1.38,2.67-3.05,4.48-5,.13-.14.03-.37-.16-.38l-.91-.03c-.23,0-.45.08-.6.25l-.81.85-.1-.11c.3-.64.15-1.03-.43-1.17-2.95-.71-8.28,3.81-9.34,6.4-.27.67-.38,1.79.42,2.16,1.21.55,2.99-.3,3.93-1.06.3-.24.59-.46.89-.66.03,0,.06,0,.1,0,0,0,0,0,.03,0-.31.56-.46,1.4.23,1.74,1.38.69,3.65-.72,4.84-1.8.1-.09.11-.24.04-.34ZM54.68,36.48c-.51-.53.79-2.64,2.93-4.72,2.13-2.08,4.27-3.34,4.79-2.81.51.53-.79,2.64-2.93,4.72-2.13,2.08-4.27,3.34-4.79,2.81Z"/>
    <path class="cls-3" d="M57.48,45.45c-.05-.08-.07-.17-.07-.27v-3.04s-.03-.08-.07-.08h-.34c-.06-.01-.11.04-.1.09l.09,3.06c0,.06-.02.12-.06.17l-.16.17c-.06.06-.01.16.07.16l.67.02c.07,0,.12-.08.08-.14l-.09-.15Z"/>
    <path class="cls-3" d="M77.61,42.02c-.68.05-1.04.33-1.07.86,0,.14-.11.25-.25.27-.05,0-.08,0-.08.01-.06.04-.05.12.02.14.02,0,.06,0,.12,0,.11,0,.19.09.19.2l-.06,2.14c0,.06.04.1.09.1h.32c.06.01.1-.03.1-.08l.06-2.15c0-.1.09-.17.18-.16.05,0,.08,0,.1,0,.1-.03.12-.17.03-.22,0,0-.06,0-.17,0-.1,0-.19-.08-.2-.18-.02-.12,0-.32.08-.58.03-.1.14-.17.24-.14.25.07.39.07.43,0,.06-.1-.02-.23-.13-.22Z"/>
    <path class="cls-3" d="M103.45,45.44c-.05-.08-.07-.17-.07-.27v-3.02s-.02-.08-.07-.08h-.34c-.06,0-.1.04-.1.09l.08,3.05c0,.06-.02.12-.06.17l-.16.17c-.06.06-.01.16.07.16l.67.02c.07,0,.12-.08.08-.14l-.09-.15Z"/>
    <path class="cls-3" d="M58.7,42.69s.09-.03.13-.08c.12-.16.11-.37-.03-.46-.11-.08-.21-.08-.3,0-.23.2-.09.58.2.55Z"/>
    <path class="cls-3" d="M87.9,42.71c.09,0,.16-.05.2-.16.07-.19.03-.38-.11-.43-.1-.04-.18-.05-.23-.02-.28.16-.19.58.14.61Z"/>
    <path class="cls-3" d="M43.73,45.02c-.12.39-.44.62-.95.67-1.05.1-1.52-.64-1.53-1.59-.02-.95.42-1.71,1.48-1.64.51.03.84.24.97.63.03.09.16.11.21.03.05-.06.04-.19-.02-.37-.03-.08-.09-.14-.17-.17-1.35-.52-3.15-.13-3.12,1.53.03,1.67,1.84,1.99,3.17,1.42.08-.03.13-.1.16-.18.06-.18.06-.3,0-.37-.06-.08-.18-.06-.21.04Z"/>
    <path class="cls-3" d="M67.81,45.51c-.06-.08-.09-.17-.09-.27l.07-2.65c0-.08-.06-.15-.14-.15-.04,0-.1,0-.19,0s-.15,0-.19,0c-.08,0-.14.07-.14.15l.08,2.65c0,.1-.03.19-.09.27-.05.06-.07.1-.09.11-.04.03-.03.09,0,.11,0,0,.14,0,.42,0,.28,0,.42,0,.42,0,.05-.03.05-.09,0-.12-.02-.01-.05-.05-.09-.11Z"/>
    <path class="cls-3" d="M68.66,42.41c-.21,0-.25.3-.06.37,0,0,.14-.03.42-.1.46-.12.66.56.29,1-.29.36-.69.45-1.19.27-.04-.01-.08.01-.08.05h0s.02.08.06.09c.68.14,1.28.02,1.81-.36.29-.21.35-.6.13-.79-.46-.38-.92-.56-1.37-.53Z"/>
    <path class="cls-3" d="M125.52,45.49c-.06-.08-.09-.17-.08-.27l.08-2.61c0-.08-.06-.14-.14-.15-.04,0-.1,0-.19,0s-.15,0-.18,0c-.08,0-.14.07-.14.15l.07,2.61c0,.09-.03.19-.09.27-.04.06-.07.09-.09.1-.04.03-.04.09,0,.11,0,0,.14,0,.42,0h.41s.05-.08,0-.11c-.02-.01-.05-.05-.09-.11Z"/>
    <path class="cls-3" d="M127.09,42.45c-.63.11-.99.13-1.07.07-.05-.04-.12-.04-.17,0-.05.04-.06.11-.02.17,0,.02.26-.02.75-.11.05,0,.11,0,.15.02l.79.32c.07.03.15-.03.13-.1-.02-.09-.06-.18-.14-.27-.09-.09-.23-.13-.42-.09Z"/>
    <path class="cls-3" d="M52.4,43.37c.02-.09,0-.19-.02-.28-.04-.14-.05-.26-.04-.37.01-.08-.1-.13-.15-.06-.21.31-.4.47-.54.5-.05,0-.06.08,0,.1.17.05.25.15.25.3-.02.82,0,1.49.01,2.04,0,.06.06.11.12.11h.46s.06-.02.05-.05c-.24-.67-.29-1.44-.14-2.3Z"/>
    <path class="cls-3" d="M113.49,44.88c.62-.28,1.13-.52,1.52-.72.43-.22.55-.78.24-1.14-.45-.52-1.43-.66-2.12-.33-.16.07-.22.22-.19.44.02.1.15.12.19.03.12-.24.35-.42.68-.54.09-.03.2-.04.3,0,.97.25.89,1.22.15,1.7-.49.31-.91.61-1.26.91-.2.16-.09.49.17.49l1.9.05c.13,0,.24-.09.27-.21l.08-.34s-.03-.08-.08-.07c-.66.21-1.26.26-1.81.15-.2-.04-.23-.31-.05-.39Z"/>
    <path class="cls-3" d="M118.09,42.54c-.07.01-.09.1-.04.15.46.32.66.88.58,1.67-.09.89-.4,1.35-.93,1.36-.54,0-.86-.43-.98-1.32-.1-.78.07-1.35.52-1.69.06-.04.03-.13-.04-.14-.1,0-.26.09-.47.29-1.03,1.01-.59,2.96.97,2.93,1.56-.03,1.94-1.99.87-2.96-.22-.2-.38-.29-.48-.28Z"/>
    <path class="cls-3" d="M107.72,43.19c.05-.4-.13-.6-.52-.58-.11,0-.19.11-.17.21.16.9.15,1.83-.03,2.77-.02.1.06.19.17.17l.51-.08c.06,0,.11-.07.1-.14-.13-.77-.14-1.56-.06-2.36Z"/>
    <path class="cls-3" d="M110.24,42.59c-1.97.57-.31,2.97,1.13,1.93.02-.01.03-.04.01-.06h0s-.09-.05-.13,0c-.32.36-.91.25-1.12-.11-.36-.59-.3-1.13.19-1.61.06-.06,0-.15-.08-.13Z"/>
    <path class="cls-3" d="M111.29,42.59c-.07-.03-.13.07-.07.13.45.43.55.91.29,1.43-.04.08-.01.18.06.23.12.08.13.24.04.48-.32.84-.87,1.05-1.66.62-.19-.1-.29-.21-.31-.33,0-.07-.1-.08-.13-.03-.06.1-.07.21-.03.32.02.05.06.09.11.11,2.68,1.09,3.51-2.37,1.7-2.97Z"/>
    <path class="cls-3" d="M45.97,42.95c-.82.06-1.45.73-1.4,1.52.05.78.76,1.37,1.59,1.32.82-.06,1.45-.73,1.4-1.52-.05-.78-.76-1.37-1.59-1.32ZM46.07,45.71c-.54,0-.99-.6-.98-1.34,0-.74.45-1.34.99-1.33.54,0,.99.6.98,1.34,0,.74-.45,1.34-.99,1.33Z"/>
    <path class="cls-3" d="M56.09,44.88s-.06,0-.07.02c-.44.77-1.01.97-1.71.61-.11-.06-.19-.15-.24-.27-.35-.86-.24-1.57.33-2.13.03-.03,0-.09-.05-.07-1.59.55-1.24,2.55.31,2.73.62.07,1.1-.2,1.44-.83.01-.02,0-.05-.02-.06h0Z"/>
    <path class="cls-3" d="M55.45,43.81c-.33-.08-.59-.06-.79.08-.11.08-.04.25.09.23l1.18-.18c.07-.01.12-.09.09-.16-.14-.37-.46-.64-.97-.78-.06-.02-.1.06-.05.1.29.23.46.43.54.59.03.06-.03.14-.1.12Z"/>
    <path class="cls-3" d="M61.85,43.9c-.23.08-.45.11-.66.12.39.02.77.01,1.1-.02.12-.01.19-.14.14-.25-.3-.57-.8-.81-1.51-.71h0c.52.07.73.1,1.02.63.05.09,0,.2-.09.23Z"/>
    <path class="cls-3" d="M61.18,44.02c-.11,0-.22,0-.34-.01.11.01.22.02.34.01Z"/>
    <path class="cls-3" d="M64.59,42.97c-.13.03-.31.15-.53.35-.06.05-.02.15.06.15.33.02.55-.08.64-.3.05-.11-.05-.24-.17-.21Z"/>
    <path class="cls-3" d="M72.13,42.99c-.2,0-.4.11-.59.35-.05.06,0,.15.07.15.29,0,.5-.1.62-.31.05-.08,0-.19-.1-.19Z"/>
    <path class="cls-3" d="M74.19,42.95c-.82-.04-1.51.57-1.55,1.36-.03.79.6,1.45,1.42,1.49.82.04,1.51-.57,1.55-1.36.03-.79-.6-1.45-1.42-1.49ZM74.14,45.72c-.54,0-.99-.59-.99-1.33,0-.74.43-1.34.97-1.34.54,0,.99.59.99,1.33,0,.74-.43,1.34-.97,1.34Z"/>
    <path class="cls-3" d="M80.08,43.89c-.25.09-.5.13-.74.13.43.02.82,0,1.19-.03.12-.01.19-.14.14-.25-.31-.57-.82-.81-1.53-.71h0c.53.07.73.09,1.04.62.05.09,0,.2-.08.23Z"/>
    <path class="cls-3" d="M79.34,44.03c-.09,0-.18,0-.27-.01.09.01.18.01.27.01Z"/>
    <path class="cls-3" d="M83.34,44.29s-.42-.08-1.13-.21c-.34-.06-.47-.48-.23-.72.45-.45.93-.43,1.45.07.05.05.13.05.18,0v-.02c.06-.06.04-.14-.02-.18-.53-.28-1.09-.31-1.66-.08-.4.16-.61.56-.49.91.16.46.95.52,1.56.61.29.04.45.34.33.59-.35.72-1.49.48-1.92.03-.06-.06-.17-.04-.19.05-.03.14.03.23.18.29.55.2,2.02.32,2.36-.43.17-.37-.02-.8-.4-.9Z"/>
    <path class="cls-3" d="M86.39,44.29s-.42-.08-1.13-.2c-.34-.06-.47-.47-.23-.72.44-.45.92-.43,1.45.06.05.05.13.04.18,0v-.02c.06-.06.04-.14-.02-.18-.53-.28-1.09-.3-1.66-.06-.39.16-.6.56-.48.91.16.45.95.51,1.56.59.29.04.46.34.33.59-.34.72-1.49.49-1.91.05-.06-.06-.17-.04-.19.05-.03.14.03.23.18.29.55.2,2.01.3,2.35-.45.17-.37-.03-.8-.41-.89Z"/>
    <path class="cls-3" d="M90.5,42.96c-.83-.04-1.54.55-1.58,1.33-.04.78.6,1.44,1.43,1.48.83.04,1.54-.55,1.58-1.33.04-.78-.6-1.44-1.43-1.48ZM90.43,45.71c-.55,0-.99-.59-1-1.33,0-.74.44-1.34.99-1.34.55,0,.99.59,1,1.33,0,.74-.44,1.34-.99,1.34Z"/>
    <path class="cls-3" d="M95.1,43.46c-.25-.43-.68-.58-1.29-.45-.2.04-.32.09-.35.16-.02.03,0,.07.03.09.03.02.07.02.09,0,.17-.18.37-.22.6-.14.81.29.61,2.08.46,2.48-.03.07.02.14.1.14h.47c.08.02.14-.07.1-.14-.26-.5.09-1.6-.22-2.13Z"/>
    <path class="cls-3" d="M98.47,43.45c-.25-.43-.68-.57-1.28-.45-.2.05-.32.1-.34.16-.02.03,0,.07.02.09.03.02.07.02.09,0,.17-.18.37-.22.6-.14.81.28.61,2.06.47,2.46-.03.06.02.14.1.14h.47c.08.02.14-.07.1-.14-.26-.5.09-1.59-.23-2.11Z"/>
    <path class="cls-3" d="M101.99,44.8s-.09.14-.25.43c-.05.08-.11.15-.19.2-.5.35-.95.36-1.36.01-.43-.36-.42-1.31-.29-1.77.11-.39.48-.64.86-.6.38.04.62.3.71.78.01.07.06.12.13.14.17.04.28.02.35-.04.07-.06.08-.17.02-.25-1.03-1.41-3.22-.47-2.57,1.2.27.7.87.98,1.78.84.26-.04.55-.31.88-.82.04-.06-.02-.14-.09-.12Z"/>
    <path class="cls-3" d="M129.69,42.97c-.2.02-.4.16-.6.42-.04.06,0,.14.07.13.38-.06.61-.18.67-.36.03-.09-.04-.19-.14-.19Z"/>
    <path class="cls-3" d="M132.14,43.08c-.69-.15-1.23-.11-1.64.12-.16.09-.21.18-.17.27.04.08.15.1.21.03.64-.68,1.67-.7,1.66.5,0,.62-.02.98-.06,1.09-.04.14,0,.28.1.38l.24.23c.07.07.19.02.19-.08l.05-1.79c0-.36-.24-.67-.58-.75Z"/>
    <path class="cls-3" d="M136.1,43.47c-.25-.43-.68-.58-1.28-.46-.2.04-.32.09-.35.16-.02.03,0,.07.02.09.03.02.07.02.09,0,.17-.18.37-.22.6-.14.81.29.6,2.08.45,2.47-.03.07.02.14.1.14l.47.02c.08,0,.14-.08.1-.16-.26-.5.1-1.59-.21-2.12Z"/>
    <path class="cls-3" d="M138.67,43.01c-.77-.08-1.51.12-1.72.87-.43,1.5,1.21,2.5,2.39,1.47.05-.04,0-.12-.05-.1-.01,0-.12.09-.31.27-.07.06-.15.1-.23.12-1.62.36-1.71-2.23-.6-2.53.45-.12.81.02,1.07.43.08.12.27.06.27-.08,0-.24-.28-.39-.81-.45Z"/>
    <path class="cls-3" d="M141.47,44.03c-.11,0-.22,0-.33-.01.11.01.22.02.33.01Z"/>
    <path class="cls-3" d="M142.15,43.9c-.23.08-.46.12-.68.13.4.02.78.01,1.13-.02.12-.01.19-.15.14-.26-.31-.58-.82-.82-1.54-.71h0c.53.07.74.1,1.04.63.05.09,0,.2-.09.24Z"/>
    <path class="cls-3" d="M49.87,45.5c-.16.17-.36.22-.58.14-.79-.27-.6-2.01-.46-2.39.02-.06-.03-.14-.1-.14h-.46c-.08-.01-.13.07-.1.14.26.48-.08,1.55.23,2.05.25.41.67.56,1.25.43.19-.04.31-.09.33-.15.01-.03,0-.07-.03-.09-.03-.02-.07-.02-.09,0Z"/>
    <path class="cls-3" d="M50.87,43.21c.01-.08-.06-.16-.14-.14l-.43.07c-.06,0-.09.06-.08.11.11.64.14,1.3.07,1.97-.03.33.11.5.44.48.09,0,.16-.09.14-.18-.14-.75-.15-1.52,0-2.31Z"/>
    <path class="cls-3" d="M58.96,43.59c.04-.34-.11-.5-.44-.49-.09,0-.16.09-.14.18.14.75.13,1.53-.02,2.32-.02.08.06.16.14.15l.43-.07c.06,0,.09-.06.08-.11-.11-.65-.13-1.31-.06-1.98Z"/>
    <path class="cls-3" d="M62.48,44.83s-.06,0-.07.03c-.4.79-.96,1.02-1.67.69-.11-.05-.2-.14-.25-.25-.39-.84-.31-1.56.23-2.14.03-.03,0-.09-.05-.07-1.55.62-1.11,2.6.44,2.71.63.04,1.09-.25,1.39-.89,0-.02,0-.05-.02-.06h0Z"/>
    <path class="cls-3" d="M63.84,43.56c.04-.34-.11-.51-.45-.5-.09,0-.17.09-.15.19.14.77.13,1.57-.02,2.38-.02.08.06.16.14.15l.44-.07c.06,0,.09-.06.08-.12-.11-.66-.13-1.34-.05-2.03Z"/>
    <path class="cls-3" d="M71.3,43.57c.04-.34-.11-.51-.45-.49-.09,0-.16.09-.15.19.14.77.13,1.55-.01,2.36-.02.09.06.16.14.15l.44-.07c.06,0,.09-.06.08-.12-.11-.65-.13-1.32-.06-2.01Z"/>
    <path class="cls-3" d="M80.76,44.8s-.06,0-.07.03c-.39.8-.95,1.04-1.67.72-.11-.05-.2-.14-.26-.25-.4-.84-.33-1.56.2-2.15.03-.03,0-.08-.05-.07-1.55.65-1.08,2.63.48,2.71.63.04,1.09-.27,1.38-.92,0-.03,0-.05-.02-.06h0Z"/>
    <path class="cls-3" d="M88.19,43.27c.01-.09-.06-.18-.15-.18-.33,0-.47.16-.43.49.08.68.08,1.34-.02,1.99,0,.06.03.11.09.11l.43.06c.08,0,.16-.06.14-.15-.16-.79-.18-1.57-.06-2.33Z"/>
    <path class="cls-3" d="M93.11,43.57c.03-.34-.12-.51-.45-.48-.09,0-.16.09-.14.19.15.76.16,1.55.03,2.35-.01.08.06.16.15.14l.43-.07c.06,0,.09-.06.08-.12-.12-.65-.15-1.32-.09-2Z"/>
    <path class="cls-3" d="M96.59,43.59c.04-.34-.11-.5-.44-.49-.09,0-.16.09-.15.18.14.76.13,1.53-.02,2.33-.02.08.06.16.14.14l.43-.06c.06,0,.09-.06.08-.12-.11-.64-.12-1.31-.05-1.98Z"/>
    <path class="cls-3" d="M128.87,43.54c.04-.35-.11-.51-.45-.5-.1,0-.17.09-.15.19.14.78.14,1.58,0,2.39-.02.08.06.16.14.15l.44-.07c.06,0,.09-.06.08-.12-.11-.67-.14-1.35-.06-2.04Z"/>
    <path class="cls-3" d="M134.18,43.6c.04-.34-.11-.5-.44-.48-.09,0-.16.09-.14.18.14.75.13,1.53-.01,2.32-.01.08.06.16.14.14l.43-.07c.06,0,.09-.06.08-.11-.11-.64-.13-1.3-.06-1.98Z"/>
    <path class="cls-3" d="M142.81,44.8s-.06,0-.07.03c-.39.8-.95,1.03-1.67.71-.11-.05-.2-.14-.26-.25-.4-.84-.33-1.56.21-2.15.03-.03,0-.08-.05-.07-1.55.65-1.09,2.62.47,2.71.63.04,1.09-.27,1.39-.91,0-.03,0-.05-.02-.06h0Z"/>
    <path class="cls-3" d="M52.83,43.2c-.1-.03-.17-.04-.18-.03-.08.04-.09.14-.02.19,0,0,.07,0,.19-.01.08,0,.09-.12.01-.15Z"/>
    <path class="cls-3" d="M127.18,43.81c0-.09-.1-.14-.18-.11-.04.02-.07.06-.12.15,0,0-.07.02-.21.04-.65.07-.97.13-.97.15,0,.03.33.04.98.05.14,0,.21,0,.21.02.05.08.09.13.13.14.08.03.17-.04.17-.13,0-.05,0-.1,0-.15,0-.05,0-.1,0-.15Z"/>
    <path class="cls-3" d="M100.42,43.91s-.06.02-.07.06c0,.03.02.06.05.07.22.04.46.02.67,0,.03,0,.05-.03.05-.06,0-.03-.02-.05-.05-.05l-.65-.02Z"/>
    <path class="cls-3" d="M122.34,44.2c-.73-.06-1.1,0-1.1.2,0,.19.37.24,1.1.14.05,0,.08-.02.09-.05.02-.03.02-.07.02-.12,0-.05-.01-.09-.03-.12-.02-.03-.05-.05-.1-.05Z"/>
    <path class="cls-3" d="M131.42,45.46c-.14-.1-.27-.11-.41-.03-.19.11-.26-.12-.19-.71,0-.05.13-.18.37-.4.05-.05.02-.13-.05-.14-.24,0-.48.1-.72.33-.24.22-.28.58-.08.81.36.41.7.58,1.01.51.18-.04.22-.27.07-.37Z"/>
  </g>
  <path class="cls-2" d="M74.68,56.37s-.04.08-.08.08h-33.74s-.08-.04-.08-.08v-3.82s.04-.08.08-.08h33.74s.08.04.08.08v3.82h0Z"/>
  <path class="cls-1" d="M142.49,56.34c0,.06-.05.11-.11.11h-33.67c-.06,0-.11-.05-.11-.11v-3.76c0-.06.05-.11.11-.11h33.67c.06,0,.11.05.11.11v3.76h0Z"/>
</svg>