<?xml version="1.0" encoding="UTF-8"?>
<svg id="Layer_1" data-name="Layer 1" xmlns="http://www.w3.org/2000/svg" viewBox="0 0 186 74">
  <defs>
    <style>
      .cls-1 {
        fill: #010101;
      }
    </style>
  </defs>
  <path class="cls-1" d="M71.58,11.5c1.27-.78,2.5-1.33,3.68-1.66,5.43-1.52,11.25-1.39,16.62.15.86.25,2.02.7,3.47,1.36,1.53.7,2.8,1.62,3.84,2.77.93,1.03,1.8,2.25,1.93,3.58.06.7.06,1.2,0,1.51-.23,1-.74,1.89-1.53,2.68-.79.79-1.55,1.38-2.27,1.79-1.46.83-3.17,1.48-5.12,1.95-.51.13-1.01.17-1.49.13-.07,0-.12-.08-.09-.15.39-.86.99-2-.1-2.62-.11-.07-.18-.19-.17-.32.13-2.21.2-3.4.22-3.57.09-.99-.02-1.92-.04-3.04,0-.05.02-.11.06-.14l.74-.67s.02-.09-.03-.1c-.07-.02-.15-.02-.24,0-.06.01-.12-.02-.14-.08-.02-.06,0-.12.06-.15.12-.07.24-.08.35-.04.05.02.11-.01.11-.07.01-.15,0-.27-.03-.34-.03-.06-.09-.09-.15-.07-.7.21-1.16.61-1.38,1.21-.17.47-.02,1.05-.14,1.56-.32,1.41.17,2.72-.5,3.92-.05.09-.02.2.07.25.32.19.55.52.71,1,.01.04-.04.08-.07.04l-.75-.82c-.08-.09-.23-.03-.22.09,0,.3.43.82,1.27,1.56.11.1.14.27.07.4v.02c-.08.11-.23.14-.33.05-.6-.51-1.01-.97-1.25-1.36-.09-.15-.1-.43-.03-.86,0-.06.05-.11.1-.13.11-.05.16-.14.17-.28,0-.02,0-.04,0-.06l-.35-1.01c-.02-.06-.01-.13.03-.18l.04-.05c.05-.07.06-.15.04-.24-.24-.68-.56-1.24-.96-1.71-.07-.08-.18-.13-.28-.13h-.73c-.11,0-.2.04-.28.11-.55.51-.65,1.21-.31,2.11.02.06.08.1.15.1h0c.06,0,.11-.06.1-.12l-.23-.96c-.04-.15.01-.31.13-.42l.73-.67s.02-.01.03-.01c.13-.03.31.05.52.24.05.05.03.14-.04.15l-.14.02c-.07,0-.12.07-.11.15l.05.35c0,.07.08.12.15.09l.3-.12c.09-.04.19.03.19.13,0,.1-.02.17-.06.22-.03.04-.1.04-.21,0-.15-.05-.28,0-.39.15-.02.03,0,.08.03.09.11.03.2.07.3.14.06.04.07.11.04.17-.29.46-.63.67-1.03.65-.3-.02-.43.37-.18.54.14.09.45.18.93.26.06,0,.09-.06.05-.1l-.29-.31c-.07-.08.01-.2.11-.17.57.21.88.64.94,1.27,0,.07-.06.14-.13.13-.13,0-.27-.06-.42-.14-.06-.03-.12-.05-.18-.06-2.28-.19-3.99-.35-5.11-.48-.59-.07-.92-.11-1-.13-.56-.16-.92-.23-1.08-.23-.04,0-.05.06-.01.07l.68.29s.03.01.05.01l1.81.16s.07.01.1.02c.59.19.93.29,1.05.29,1.3.06,2.27.12,2.9.18.76.07,1.86.27,1.85,1.23,0,.63-.56,1.04-1.11,1.25-.23.09-.44-.17-.3-.38.04-.05.14-.14.33-.27.03-.02.05-.04.06-.08.02-.06,0-.11-.05-.15-.07-.05-.11-.11-.11-.17,0-.09,0-.22.05-.39.04-.18-.08-.35-.26-.36-.48-.03-1.08-.19-1.8-.48-.02,0-.04-.01-.07-.01l-2.35-.19s-.04-.01-.06-.02l-.08-.06s-.11-.05-.17-.04c-.87.2-1.81-.2-2.55-.59-.07-.04-.14-.05-.22-.05-.42.01-.7.09-.84.22-.33.3-.5.46-.51.48-.02.04-.06.06-.11.06-.06,0-.1,0-.11,0-.04.03-.06.09-.02.08.32-.11.69-.27,1.11-.47.13-.06.29-.08.43-.04,1.83.5,3.54.96,5.13,1.4.98.27,1.64.41,1.89,1.36.11.42.17.75.17.96,0,.06-.02.13-.06.18-.18.22-.46.12-.69-.03-.6-.4-.96-.62-1.09-.64-.51-.08-.9-.25-1.17-.49-.2-.19-.39-.3-.56-.32-.54-.08-.96-.13-1.26-.15-.08,0-.15.04-.19.1-.22.39-.34.84-.35,1.36,0,.07.03.14.09.18l.68.52s.06.06.06.11l.12.89c0,.05-.03.1-.08.12-.32.09-.89.28-1.69.56-.24.09-.71.08-1.41-.04-.03,0-.07,0-.1,0l-2.8.37s-.04.02-.03.04h0s.02.03.04.03c1.01,0,2.24-.04,3.7-.1.87-.04,1.35-.25,2.3-.63.19-.08.41-.03.55.13l.7.75c.05.05,0,.13-.06.13l-.47-.04s-.08,0-.12.03c-.74.43-1.53.59-2.37.47-.06,0-.12-.03-.18-.05-.88-.39-1.28-.51-2.1-.36-.28.05-.56.06-.84.04l-1.86-.15c-.08,0-.15.04-.17.12l-.06.21c-.02.07-.11.1-.16.04l-.02-.02c-.07-.08-.11-.18-.09-.29.02-.1.12-.18.31-.25.04-.01.04-.07,0-.08-.22-.11-.66-.28-1.32-.51-.6-.22-1.18-.16-1.73.16-.17.1-.24.32-.16.5.48,1.06,2.8.87,3.88.84,1.19-.03,2.61.27,4.02.36,1.76.11,3.35.3,4.77.59.72.14,1.11.56,1.19,1.24.06.61.15,1.3.27,2.08.22,1.52.18,3.05.14,4.45,0,.3.07.97.2,1.41.3.97.45,1.79.45,2.46,0,.07.05.13.12.13.37.02.61.23.73.61.02.07-.06.12-.11.08l-.72-.55s-.12-.03-.16.01c-.43.48-1,.99-.47,1.46.28.26.48.46.59.62.07.11.12.22.15.35l.21,1.06c.04.17.25.24.37.12.51-.48.54-1.7.46-2.33-.11-.86-.36-1.95-.34-2.93.04-2.4.29-4.78.76-7.14.02-.09.13-.13.2-.07.69.58,1.43,1,2.23,1.27.13.04.3,0,.51-.14.04-.02.06-.06.07-.1l.27-1.22s0-.1-.01-.15c-.22-.53-.53-.71-.6-1.35-.07-.64-.74-1.25-1.42-2.08-.53-.65-.36-1.14-.19-1.85.06-.25.13-.46.2-.62.02-.05.08-.09.13-.09,2.68-.17,5.78-.86,8.21-1.79,1.23-.47,2.44-1.14,3.63-2.01,2.01-1.47,2.85-3.38,2.51-5.72-.27-1.9-1.33-3.51-2.74-4.75-2.83-2.49-6.47-3.77-10.2-4.42-2.75-.48-5.56-.67-8.44-.57-1.29.04-3.01.31-5.18.81-.98.22-1.88.56-3.03.93-1.24.39-2.45,1.06-3.65,2.01-.11.09-.17.23-.15.38v.02c.02.11.14.17.23.11ZM74.12,28.58h-.05c-.25,0-.46-.33-.47-.76v-.05c0-.11.09-.21.2-.21h.54c.11,0,.21.08.21.2v.05c0,.42-.19.77-.44.77ZM88.27,42.95s-.04.09-.09.11c-.37.13-.56.27-.35.68.18.35.26.63.26.85,0,.05-.07.06-.08.01l-.44-1.1c-.03-.07-.07-.14-.11-.2-.09-.13-.27-.28-.53-.45-.08-.05-.12-.1-.13-.14-.04-.2.23-.29.37-.13.04.05.08.15.13.3.03.1.13.14.22.1l.46-.25s.01,0,.02,0c.2-.08.3,0,.28.22ZM90.25,15.89s0,.03,0,.04v4.1c0,.1-.07.18-.16.21h-.06c-.11.02-.2-.06-.21-.16-.11-.8-.07-1.79.1-2.98.12-.8-.13-1.24.56-1.87.04-.04.1,0,.08.06l-.28.61Z"/>
  <path class="cls-1" d="M86.84,18.57c0-.08-.08-.15-.16-.12-.15.05-.24.14-.3.27-.07.18.05.37.23.36.14,0,.21-.17.23-.51Z"/>
  <path class="cls-1" d="M79.14,20.75s-.05-.04-.13-.03c-.41.07-.61.11-.61.12,0,0,.21,0,.62-.03.08,0,.12-.02.12-.06Z"/>
  <path class="cls-1" d="M77.46,21.48l.32-.13s.04-.08-.01-.09c-.16-.02-.29-.06-.39-.12-.07-.04-.15.03-.12.1l.07.18c.02.05.08.08.13.06Z"/>
  <path class="cls-1" d="M78.61,21.3s-.01.09.03.08c.05,0,.08-.01.09-.03.04-.04.04-.12-.01-.11-.04,0-.07.02-.12.06Z"/>
  <circle class="cls-1" cx="140.97" cy="47.14" r="1.81"/>
  <path class="cls-1" d="M58.13,58.2c.75.47,1.36.73,1.81.8.48.07,1.31.1,2.48.07.62-.01,1.13-.12,1.53-.32,2.03-1.02,3.32-2.98,3.48-5.25.08-1.16-.16-2.21-.71-3.17-1.09-1.89-2.92-2.59-5.04-2.55-3.02.06-5.21,1.74-5.74,4.76-.31,1.75,0,3.41,1.24,4.74.46.5.78.8.95.91ZM60.29,48.81s.05,0,.07,0h1.82s.04,0,.06.01c1.79.4,2.85,2.24,3.12,3.97.3,1.93-.23,4.68-2.41,5.29-.02,0-.05,0-.07,0h-1.82s-.04,0-.06-.01c-1.79-.4-2.85-2.24-3.12-3.98-.3-1.93.23-4.68,2.4-5.28Z"/>
  <path class="cls-1" d="M48.09,58.95c.11,0,.27-.02.47-.06.13-.03.19-.17.12-.27-.05-.08-.14-.15-.24-.15-.42-.03-.68-.06-.78-.08-.06-.02-.12-.05-.17-.1l-.37-.35s-.04-.05-.05-.09c-.12-.53-.18-1.1-.19-1.71,0-.14,0-2.44,0-6.89,0-.06.01-.11.04-.16.12-.25.25-.39.39-.44.87-.27,1.76-.17,2.49.37.67.49,1,1.22.99,2.2,0,1.05-.5,1.76-1.47,2.14-.23.09-.79.08-1.67-.03-.1-.01-.17.1-.11.18l.14.22c.11.17.29.27.49.28.84.04,1.5.04,2,.02.32-.02.62-.12.91-.3,1.67-1.06,2.45-3.38.79-4.85-1.49-1.32-3.69-1.12-5.57-.84-.17.02-.34.03-.51.02-1.04-.08-1.81-.24-2.43-.06-.19.06-.19.33,0,.38.59.15,1.22.36,1.5.89.08.15.12.48.12.98,0,3.28,0,5.57,0,6.86,0,.78-.37,1.3-1.1,1.56-.11.04-.12.2,0,.25.15.06.3.09.44.08,1.27-.05,2.53-.06,3.78-.04Z"/>
  <path class="cls-1" d="M103.38,47.91c-.06-.08-.18-.08-.25,0-.25.34-.53.84-.82,1.51-.22.51-.42.93-.6,1.27-.05.09-.24.52-.58,1.29-1.35,3.09-2.07,4.74-2.17,4.94-.3.63-.46,1.15-1.19,1.55-.09.05-.16.17-.21.35,0,.03.01.05.04.05h3.59c.1,0,.18-.07.19-.17,0-.09-.05-.18-.15-.2l-.57-.13c-.23-.05-.41-.24-.44-.47-.16-1.06.16-1.96.97-2.72.16-.15.37-.23.58-.24,1.08-.02,1.82-.02,2.21,0,.22.01.45.11.67.31.04.04.08.09.1.15.13.37.34.93.64,1.68.22.55.09.97-.39,1.28-.17.11-.31.17-.41.18-.08.01-.14.09-.13.18v.12c.03.1.13.17.23.15l.46-.12s.1-.02.15-.02c1.36-.08,2.61-.04,3.75.12.08.01.14-.06.13-.13v-.05c-.03-.14-.12-.25-.26-.28-1.1-.29-1.27-.96-1.77-2.09-.74-1.68-1.29-2.97-1.66-3.84-.75-1.79-1.39-3.22-1.9-4.28-.09-.19-.16-.31-.22-.38ZM104.12,54.05c.01.1-.06.18-.16.18h-2.28c-.13,0-.22-.13-.17-.25l1.3-3.11c.03-.08.15-.08.18,0,.39,1.07.67,1.76.82,2.09.16.34.26.71.3,1.08Z"/>
  <path class="cls-1" d="M112.45,48.44c.16.16.81.1,1.1.3.39.26.59.64.62,1.14.1,1.78.14,3.81.13,6.08,0,.79-.08,1.42-.24,1.89-.12.34-.42.58-.91.72-.12.03-.18.16-.13.27h0c.05.13.18.2.31.17.76-.16,1.45-.22,2.08-.17.45.04.91.06,1.37.08.19,0,.3-.05.35-.16.04-.1-.02-.21-.12-.23-.32-.07-.51-.11-.56-.12-.08-.02-.16-.07-.22-.14-.23-.28-.36-.68-.41-1.19-.13-1.56-.18-3.36-.15-5.42,0-.26.03-.53.07-.83.01-.07.1-.1.15-.05,1.47,1.51,2.94,3.35,5.21,6.08.63.76,1.22,1.41,1.77,1.96.18.18.47.13.58-.08,0-.02.01-.07.01-.18.07-5.67.11-8.63.11-8.89,0-.68.31-1.14.91-1.38.16-.06.15-.29,0-.35-.18-.06-.38-.08-.63-.04-1.09.17-1.65.09-3.06.05-.15,0-.26.13-.22.27.02.05.06.08.13.09.3.04.53.09.71.14.58.18.66.92.67,1.54.02,1.48,0,3.13-.08,4.96,0,.04-.05.06-.08.04-.48-.37-.99-.87-1.5-1.49-1.7-2.05-3.06-3.64-4.06-4.8-.1-.11-.34-.34-.72-.68-.06-.06-.15-.09-.24-.09-1.09,0-2.06.05-2.9.15-.11.01-.17.12-.14.22.01.05.04.09.08.12Z"/>
  <path class="cls-1" d="M137.43,48.92c-1.01-.65-1.99-1-2.94-1.04-.9-.04-1.95,0-3.17.11-.47.05-1,.06-1.59.03-.75-.03-1.47-.07-1.9.11-.14.06-.13.26.01.31.52.15.82.24.9.27.66.23.84.57.84,1.31,0,5.12,0,7.7,0,7.74-.02.24-.16.46-.38.57l-.52.26c-.18.09-.11.37.1.35,1.19-.11,2.6-.13,4.25-.07.33.01.69,0,1.08-.01.51-.02.86-.07,1.07-.13.95-.28,1.82-.77,2.59-1.47.86-.78,1.39-1.71,1.58-2.79.19-1.05.22-1.9.1-2.57-.23-1.26-.9-2.25-2.02-2.97ZM137.3,55.28c-.41,1.43-1.35,2.5-2.85,2.66-.33.04-.83.04-1.48.02-1.02-.04-1.53-.57-1.52-1.6,0-4.08,0-6.28,0-6.61-.02-.68.3-.88.92-.9.81-.02,1.32-.02,1.52,0,3.1.41,4.18,3.73,3.42,6.42Z"/>
  <path class="cls-1" d="M70.68,48.48c1.2.25,1.69.49,1.69,1.86,0,4.65,0,7.06-.01,7.25-.02.32-.2.61-.49.75l-.51.25c-.22.11-.13.44.11.43.31-.02,1.1-.07,2.37-.15.67-.04,1.29.08,1.93.05.09,0,.16-.08.16-.17v-.06c0-.14-.11-.25-.25-.25-.81-.03-1.27-.51-1.37-1.45-.08-.74-.1-1.65-.05-2.74,0-.06.05-.1.11-.1h1.31s.07,0,.11.02c.49.18.94.9,1.18,1.34.66,1.23,1.14,2.05,1.45,2.46.47.61.92,1.03,1.71.98.7-.04,1.29-.25,1.75-.63.19-.15.06-.46-.19-.43-.16.02-.47.14-.69.06-.55-.2-1-.81-1.26-1.28-.64-1.11-1.21-2.16-1.72-3.15-.04-.08-.01-.17.05-.22.84-.6,1.53-1.07,1.67-2.17.13-.95-.16-1.86-.99-2.42-.75-.51-1.49-.76-2.22-.74-1.89.05-3.7.07-5.45.06-.14,0-.28.01-.42.05-.22.05-.21.36,0,.41ZM74.27,49.35c.05-.34.27-.52.65-.56.97-.08,1.78.22,2.43.92.86.93.88,2.51-.29,3.21-.43.26-1.52.15-2.19.15-.72,0-.61-.56-.62-1.15-.02-1.52,0-2.38.02-2.57Z"/>
  <path class="cls-1" d="M85.86,58.57c-.09.04-.14.13-.12.23.02.1.11.16.21.15,1.14-.11,2.21-.24,3.42-.15,1.16.08,2.12.12,2.88.13,1.36.02,2.08-1.49,2.06-2.66,0-.14-.18-.21-.27-.11-.69.7-1.22,1.27-2.11,1.5-.89.23-1.77.28-2.64.15-.07,0-.13-.04-.18-.09-.26-.25-.39-.59-.39-1.02-.01-4.71-.02-7.13-.02-7.24,0-.72.32-.91.97-1.06.21-.05.23-.34.03-.41-.11-.04-.26-.06-.46-.06-.3,0-1.12.07-2.46.17-.15.01-.3,0-.44-.01l-1.01-.14c-.12-.02-.23.06-.26.17v.04c-.04.12.04.24.16.27.72.14,1.31.18,1.61.98.01.03.02.06.02.1,0,1.61.03,4.03.1,7.26.02.89-.35,1.49-1.11,1.79Z"/>
  <rect class="cls-1" x="43.92" y="60.06" width="95.25" height=".73" rx=".08" ry=".08"/>
  <path class="cls-1" d="M58.8,62.85h-.36c-.98,0-1.77.81-1.77,1.79v.35c0,.98.81,1.77,1.79,1.77h.36c.98,0,1.77-.81,1.77-1.79v-.35c0-.98-.81-1.77-1.79-1.77ZM59.09,66.44c-.77.22-1.6-.34-1.86-1.24-.25-.9.17-1.81.94-2.02.77-.22,1.6.34,1.86,1.24.25.9-.17,1.81-.94,2.02Z"/>
  <path class="cls-1" d="M86.22,64.71c-.12-.07-.44-.2-.97-.41-.5-.19-.78-.41-.54-.94.03-.06.08-.11.14-.13.49-.15,1.05-.14,1.33.32.13.2.22.32.29.37.05.03.12,0,.12-.06v-.65c0-.06-.04-.12-.09-.15-.78-.39-2.23-.43-2.28.82-.03.92.85,1.05,1.55,1.29.32.11.64.31.55.68-.17.67-1.04.78-1.56.46-.24-.14-.33-.61-.59-.77-.05-.03-.12.01-.11.07l.09.67c.03.21.19.38.4.42.41.07,1.25.13,1.64-.13.71-.47.86-1.38.05-1.86Z"/>
  <path class="cls-1" d="M45.91,62.94c-.06-.03-.12-.05-.18-.05h-1.69c-.06,0-.11.05-.11.11,0,.01,0,.03,0,.05,0,.04.04.08.08.09.22.07.33.17.33.28,0,1.76,0,2.69,0,2.78,0,.05-.02.11-.06.13l-.31.18c-.1.06-.06.21.06.21h1.32c.08,0,.11-.1.05-.14l-.44-.34s-.04-.05-.04-.09v-1.1c0-.06.05-.11.11-.1l.7.06c.08,0,.16-.01.23-.05.39-.21.64-.52.76-.93.02-.07.02-.14,0-.21-.14-.39-.4-.69-.79-.9ZM45.31,64.79h-.31s-.08-.03-.08-.08v-1.37s.02-.08.07-.08h.31c.45,0,.82.27.82.62v.27c0,.34-.36.63-.81.63Z"/>
  <path class="cls-1" d="M72.75,64.85s0-.09.03-.12c.44-.33.59-.75.43-1.26-.26-.84-1.92-.51-2.46-.58-.06,0-.11.03-.13.08-.01.06.01.11.07.14l.19.08c.06.03.1.09.1.15v2.85c0,.07-.03.13-.08.17l-.22.2c-.07.06-.03.18.07.18h1.24c.08,0,.13-.1.07-.16-.11-.12-.24-.18-.4-.19-.07,0-.13-.06-.13-.13v-1.14c0-.07.05-.14.12-.16.26-.06.51.06.64.33.32.67.81,1.57,1.71,1.45.07,0,.13-.12.06-.17-.56-.42-1.01-.99-1.34-1.71ZM72.07,64.64h-.39c-.06,0-.11-.05-.11-.11v-1.22c-.01-.06.04-.12.1-.12h.39c.34,0,.63.23.63.53v.37c0,.3-.27.54-.62.54Z"/>
  <path class="cls-1" d="M99.6,65.87s-.1.03-.16.08c-.4.32-.91.46-1.53.41-.06,0-.1-.05-.1-.11v-1.17c0-.07.06-.13.13-.13h.74c.07,0,.14.04.16.11l.11.26c.05.13.24.09.24-.05v-1.01c0-.11-.14-.15-.2-.07l-.19.25c-.04.05-.1.08-.16.09l-.61.08c-.11.01-.21-.07-.21-.18v-1.02c0-.1.08-.18.18-.18h.95c.07,0,.13.05.14.12l.03.23c.02.16.24.17.29.02.04-.12.04-.31.02-.59,0-.06-.06-.11-.12-.11h-2.31c-.13,0-.17.18-.05.23l.2.08c.06.02.1.08.1.14v2.86c0,.08-.05.16-.12.2-.13.07-.2.13-.21.19,0,.06.04.11.1.11.47,0,1.07.01,1.8,0,.5,0,.8-.24.9-.7.02-.08-.04-.17-.11-.16Z"/>
  <path class="cls-1" d="M112.33,65.92c-.37.37-.91.49-1.6.38-.06,0-.1-.06-.1-.12v-2.75c0-.11.06-.2.15-.25.17-.1.2-.18.1-.26,0,0-.02-.01-.03-.01h-1.05c-.07,0-.1.08-.06.13l.29.31s.04.06.04.1v2.74s-.02.08-.05.11l-.29.26c-.07.06-.02.18.07.18h2.02c.07,0,.14-.02.19-.06.28-.18.44-.41.49-.67.02-.1-.1-.16-.18-.09Z"/>
  <path class="cls-1" d="M125.22,65.88s-.1.03-.16.08c-.4.32-.91.46-1.53.42-.06,0-.1-.05-.1-.11v-1.18c0-.07.05-.13.13-.13h.74c.07,0,.14.04.17.11l.11.26c.05.13.24.09.24-.05v-1.01c0-.11-.14-.15-.21-.07l-.19.25c-.04.05-.1.08-.16.1l-.62.08c-.11.02-.21-.07-.21-.18v-1.03c0-.1.08-.19.18-.19h.96c.07,0,.13.05.14.11l.03.23c.02.16.25.17.29.02.04-.12.04-.32.02-.59,0-.06-.06-.11-.12-.11h-2.33c-.13.01-.17.2-.04.25l.2.08c.06.02.1.08.1.14v2.88c.01.08-.03.16-.11.2-.13.07-.2.13-.21.2,0,.06.04.11.1.11.47,0,1.08,0,1.81,0,.5,0,.8-.24.91-.71.02-.09-.04-.17-.11-.16Z"/>
  <path class="cls-1" d="M138.89,62.92l-.9-.02c-.05,0-.1.04-.1.09,0,.05.02.1.07.11.08.02.19.08.34.19.03.02.05.06.05.1v2.02c0,.08-.1.12-.15.06l-2.24-2.39s-.1-.09-.16-.11c-.13-.06-.31-.09-.53-.07-.1,0-.14.14-.05.2.32.21.49.42.53.63,0,.01,0,.02,0,.04v2.36c-.01.11-.09.22-.2.25-.09.04-.18.1-.26.2-.06.07,0,.17.08.17h1.1c.1,0,.16-.12.09-.2-.1-.11-.21-.16-.33-.14-.09,0-.16-.06-.16-.15v-2.07s.06-.07.09-.04l2.39,2.6c.07.08.21.03.21-.08v-3.28c0-.06.03-.13.07-.17.08-.07.12-.13.13-.17.02-.06-.02-.12-.08-.12Z"/>
</svg>