<?xml version="1.0" encoding="UTF-8"?>
<svg id="Layer_1" data-name="Layer 1" xmlns="http://www.w3.org/2000/svg" viewBox="0 0 186 74">
  <defs>
    <style>
      .cls-1 {
        fill: #010101;
      }
    </style>
  </defs>
  <path class="cls-1" d="M123.89,6.11v61.79h-61.79V6.11h61.79M75.47,32.16c0-.05-.04-.1-.1-.1h-1.61c-.05,0-.09.05-.1.1v1.31c0,.05.05.1.1.1h1.61c.05,0,.09-.05.1-.1v-1.31M78.13,35.15h.96c.08,0,.14-.06.14-.14v-.98c0-.07-.06-.13-.14-.13h-.98c-.08,0-.14-.06-.14-.14v-1.62s-.03-.06-.07-.06h-1.68s-.06.02-.06.06c0,3.19,0,5.37,0,6.55,0,1.63,1.54,1.63,2.81,1.51.14-.01.25-.13.25-.27v-.97c0-.1-.08-.18-.18-.18h-.69c-.21,0-.38-.17-.38-.38v-3.07c0-.09.07-.16.16-.16M87.62,32.17c0-.06-.05-.11-.11-.11h-1.58c-.06,0-.11.05-.11.11v7.84c0,.06.05.11.11.11h1.58c.06,0,.11-.05.11-.11v-7.84M83.52,39.81v.17c0,.08.06.14.14.14h1.46c.07,0,.12-.05.12-.12-.04-1.27-.04-2.6-.02-3.99.01-1.03-.27-1.77-1.26-2.04-1.55-.42-4.29-.31-4.43,1.85,0,.07.05.13.12.13h1.5c.08,0,.15-.05.17-.13.16-.68.69-.93,1.59-.73.24.05.39.19.44.4.14.63-.23.83-.79.88-1.07.11-2.55.16-3.04,1.26-.25.55-.21,1.14.1,1.77.63,1.25,2.77,1.07,3.72.33.08-.06.19,0,.19.09M90.16,37.51h3.95c.07,0,.14-.06.14-.13.12-2.46-1.74-4.3-4.23-3.37-2.93,1.1-2.53,5.93.8,6.27,1.69.17,2.8-.53,3.35-2.1.01-.03-.01-.06-.04-.06h-1.45c-.06,0-.12.03-.14.09-.28.58-.87.8-1.75.63-.34-.06-.63-.3-.75-.63l-.13-.34c-.07-.18.06-.37.25-.37M94.32,38.17c.1.91.55,1.52,1.34,1.84,1.44.59,4.68.37,4.41-1.99-.25-2.24-3.37-1.33-3.78-2.39-.08-.21.03-.44.25-.51.94-.28,1.5-.07,1.68.61.01.05.06.09.11.09h1.53s.07-.02.06-.06c-.12-.96-.62-1.57-1.48-1.81-1.05-.3-3.15-.32-3.73.84-.3.6-.37,1.47.16,1.98,1.03.99,2.72.62,3.3,1.31.21.25.12.63-.18.76-.99.44-1.65.21-1.99-.69-.03-.09-.11-.14-.2-.14h-1.35c-.08,0-.15.07-.14.15M100.2,38.19c.11.91.56,1.52,1.35,1.84,1.44.58,4.68.34,4.4-2.01-.26-2.24-3.38-1.32-3.79-2.37-.08-.21.03-.44.25-.51.94-.28,1.5-.08,1.68.6.01.05.06.09.11.09h1.53s.07-.03.06-.07c-.13-.96-.62-1.56-1.49-1.8-1.05-.29-3.15-.3-3.73.86-.3.61-.37,1.47.17,1.98,1.04.99,2.73.6,3.31,1.3.21.25.12.63-.18.76-.99.44-1.65.22-1.99-.68-.03-.09-.11-.14-.2-.14h-1.35c-.08,0-.15.07-.14.16M108.18,37.51h3.95c.08,0,.14-.06.14-.14.12-2.46-1.74-4.3-4.23-3.37-2.93,1.1-2.53,5.94.81,6.27,1.69.17,2.8-.53,3.35-2.1,0-.03-.01-.06-.04-.06h-1.45c-.06,0-.11.04-.14.09-.28.58-.86.8-1.75.63-.34-.06-.63-.3-.75-.63l-.13-.34c-.07-.18.06-.37.25-.37M75.47,34.53c0-.07-.05-.12-.12-.12h-1.56c-.07,0-.12.05-.12.12v5.47c0,.07.05.12.12.12h1.56c.07,0,.12-.05.12-.12v-5.47h0Z"/>
  <path class="cls-1" d="M89.98,36.33s-.05-.02-.05-.05v-.03c0-.6.53-1.09,1.19-1.09h.09c.66,0,1.19.49,1.19,1.1v.03s-.02.05-.05.05h-2.37Z"/>
  <path class="cls-1" d="M107.97,36.32s-.05-.02-.05-.05v-.03c0-.6.55-1.09,1.23-1.09h.04c.68,0,1.22.49,1.22,1.1v.03s-.02.05-.05.05h-2.41Z"/>
  <path class="cls-1" d="M83.36,37.42c.15,1.06-.3,1.61-1.33,1.64-.38.01-.7-.16-.8-.42-.42-1.13,1.17-1.18,2-1.31.06,0,.11.03.12.09h0Z"/>
</svg>