<?xml version="1.0" encoding="UTF-8"?>
<svg id="Layer_1" data-name="Layer 1" xmlns="http://www.w3.org/2000/svg" viewBox="0 0 186 74">
  <defs>
    <style>
      .cls-1 {
        fill: #1079bf;
      }
    </style>
  </defs>
  <path class="cls-1" d="M140.36,53.27s-.04.08-.08.08H45.72s-.08-.04-.08-.08V6.04s.04-.08.08-.08h94.56s.08.04.08.08v47.23M58.57,31.96l6.62,7.93c.09.11.25.12.36.03l1.49-1.24c.08-.06.09-.18.02-.25l-5.8-6.95s-.02-.07,0-.1c2.43-2.64,4.27-4.63,5.52-5.99.2-.21.18-.4-.04-.55-.52-.36-.97-.65-1.34-.88-.14-.09-.33-.06-.44.06l-6.41,7.19s-.1.01-.1-.04v-14.23c0-.19-.15-.34-.34-.34h-4.15c-.19,0-.34.15-.34.34,0,.71,0,1.12,0,1.24-.02.27.1.41.35.42.18,0,.81,0,1.86,0,.06,0,.11.05.11.11v20.84c0,.1.08.18.18.18h2.13c.11,0,.19-.09.19-.19v-7.52c0-.08.09-.11.14-.05M106.11,18.55c0-1.07-.87-1.94-1.94-1.94s-1.94.87-1.94,1.94.87,1.94,1.94,1.94,1.94-.87,1.94-1.94M132.56,37.8c-.05-.15-.22-.21-.35-.14-.6.32-1.21.46-1.81.43-.91-.05-1.02-1.04-1.05-1.74-.03-.94-.05-1.57-.05-1.89.01-4.61.01-10.48,0-17.61,0-.11-.09-.19-.19-.19h-2.02c-.13,0-.24.11-.24.24-.02,11.03-.02,17.47,0,19.32,0,.72.11,1.4.29,2.04.35,1.16,1.16,1.67,2.39,1.79,1.15.12,2.27-.06,3.33-.53.12-.05.19-.19.14-.32l-.46-1.39M69.47,31.83c-.08,3.06.68,6.43,3.75,7.84,1.35.62,3.45.65,4.85.14,3.19-1.17,4.17-4.5,4.26-7.63.09-3.13-.71-6.5-3.83-7.85-1.37-.59-3.46-.68-4.85-.13-3.14,1.25-4.09,4.57-4.17,7.63M110.2,31.83c-.08,3.06.68,6.43,3.75,7.85,1.35.62,3.45.65,4.85.14,3.19-1.17,4.17-4.5,4.26-7.63.09-3.13-.71-6.51-3.83-7.85-1.37-.59-3.46-.68-4.85-.13-3.14,1.25-4.09,4.57-4.18,7.63M85.88,24.26s-.06.03-.06.06v1.96s.03.06.06.06h7.29s.07.05.05.09l-8.04,11.64s-.01.02-.01.03v1.59s.03.06.06.06h11.4s.06-.03.06-.06v-1.98s-.03-.06-.06-.06h-8.22s-.07-.05-.05-.09l7.96-11.53s.01-.02.01-.03v-1.69s-.03-.06-.06-.06h-10.4M100.37,26.08c0,.11.09.19.19.19h2.52c.11,0,.19.09.19.19v13.11c0,.11.09.19.19.19h2.06c.11,0,.19-.09.19-.19v-15.1c0-.11-.09-.19-.19-.19h-4.97c-.11,0-.19.09-.19.19v1.6h0Z"/>
  <path class="cls-1" d="M75.88,25.85c3.35-.01,3.83,3.66,3.84,6.14,0,2.48-.45,6.15-3.8,6.16-3.35.01-3.83-3.66-3.84-6.14,0-2.48.45-6.15,3.8-6.16h0Z"/>
  <path class="cls-1" d="M112.81,32.01c0-2.48.45-6.15,3.8-6.16,3.35-.01,3.83,3.66,3.84,6.14,0,2.48-.45,6.15-3.8,6.17-3.35.01-3.83-3.66-3.84-6.14h0Z"/>
  <path class="cls-1" d="M69.75,60.07v-2.64s.03-.09.07-.11l.62-.22c.09-.03.19.04.19.13v7.22c0,.07.01.13.04.19l.27.6s0,.09-.03.12l-.42.35c-.12.1-.3.05-.36-.1l-.17-.48c-.02-.06-.11-.08-.15-.03-.04.05-.15.13-.32.24-.88.54-1.87.55-2.47-.18-1.04-1.26-1.02-5.29,1.28-5.34.48-.01.92.09,1.32.32.05.03.12,0,.12-.07M69.67,60.92c-.51-.28-1.39-.53-1.86-.09-.59.54-.5,2.21-.42,2.98.18,1.64,1.4,1.29,2.31.52.04-.04.06-.09.06-.14v-3.1c0-.07-.04-.14-.1-.17h0Z"/>
  <path class="cls-1" d="M82.71,57.93c0,.39-.32.71-.71.71s-.71-.32-.71-.71.32-.71.71-.71.71.32.71.71h0Z"/>
  <path class="cls-1" d="M98.14,58.69c-.04.06-.14.08-.2.03-.49-.4-1.04-.56-1.65-.49-1.84.22-1.65,3.43-1.43,4.79.23,1.43,1.05,2.41,2.63,1.79.06-.02.1-.08.1-.14v-2.26c0-.06-.05-.1-.1-.1h-.82c-.09,0-.16-.07-.16-.16v-.43c0-.1.08-.18.18-.18h1.75c.06,0,.11.05.11.11v3.4c0,.13-.08.25-.2.31-.62.28-1.26.41-1.93.39-2.06-.05-2.56-1.9-2.69-3.59-.09-1.11.02-2.08.32-2.9.72-1.97,2.71-2.34,4.36-1.27.09.06.11.18.05.26l-.3.43h0Z"/>
  <path class="cls-1" d="M56.67,62.4s.06-.12.12-.37c.16-.75.66-2.07,1.42-4.31.02-.07.09-.12.17-.12l.74-.02c.06,0,.12.05.12.11l.48,7.72c0,.08-.06.16-.15.16l-.65.02c-.09,0-.17-.07-.18-.16l-.19-6.22s-.04-.03-.05,0l-1.46,4.37c-.03.09-.12.16-.22.16-.04,0-.09,0-.15,0s-.11,0-.15,0c-.1,0-.18-.07-.22-.16l-1.48-4.36s-.05-.02-.05,0l-.17,6.22c0,.09-.08.17-.18.17l-.65-.02c-.08,0-.15-.07-.15-.16l.44-7.73c0-.06.06-.12.12-.11l.74.02c.08,0,.14.05.17.12.77,2.23,1.27,3.55,1.44,4.3.05.25.09.37.12.37h0Z"/>
  <path class="cls-1" d="M85.34,60.47s.07.06.11.04c.77-.59,1.64-.95,2.57-.55.55.24.61,1.08.61,1.7,0,.04,0,1.28,0,3.75,0,.1-.08.18-.18.18h-.52c-.1,0-.18-.08-.18-.18,0-2.28,0-3.48,0-3.62,0-.32-.03-.59-.1-.8-.07-.21-.26-.36-.48-.38-.6-.05-1.16.16-1.67.64-.05.05-.07.11-.07.17v4c.01.08-.06.15-.14.15h-.58c-.09,0-.16-.07-.16-.15,0-1.85,0-3.16,0-3.92,0-.56-.06-.94-.18-1.14-.03-.05-.02-.11.02-.15l.45-.38c.1-.09.26-.04.3.09l.19.56h0Z"/>
  <path class="cls-1" d="M123.91,60.47s.07.06.11.04c.77-.59,1.65-.95,2.57-.55.55.24.61,1.09.61,1.7,0,.03,0,1.29-.02,3.76,0,.1-.08.18-.18.18h-.52c-.1,0-.18-.08-.18-.18,0-2.28,0-3.49.01-3.62,0-.33-.03-.59-.09-.8-.07-.21-.26-.36-.48-.38-.61-.06-1.16.15-1.67.63-.05.05-.07.11-.07.17v4.01c0,.08-.07.15-.15.15h-.58c-.09,0-.16-.07-.16-.16,0-1.85,0-3.16,0-3.93,0-.56-.06-.94-.18-1.14-.03-.05-.02-.11.02-.15l.45-.38c.1-.09.26-.04.3.09l.19.56h0Z"/>
  <path class="cls-1" d="M72.89,63.01c-.02.2,0,.46.1.78.39,1.37,1.78,1.43,2.8.75.08-.06.19-.02.23.08l.15.42c.03.09,0,.19-.09.24-1.54.8-3.4.65-3.98-1.22-.48-1.54-.12-4.08,1.94-4.22,1.19-.08,1.92.5,2.19,1.74.11.49.15.91.12,1.28,0,.06-.05.11-.12.11h-3.3s-.05.03-.06.06M72.94,62.25h2.39s.05,0,.05-.04v-.13c0-.84-.51-1.53-1.15-1.53h-.17c-.64,0-1.16.68-1.17,1.52v.13s.02.05.05.05h0Z"/>
  <path class="cls-1" d="M100.82,63.01c-.02.2,0,.46.1.78.39,1.37,1.78,1.43,2.8.75.08-.06.2-.02.23.08l.15.42c.03.09,0,.19-.09.24-1.54.8-3.4.65-3.98-1.23-.47-1.54-.12-4.07,1.95-4.21,1.19-.08,1.92.5,2.19,1.74.11.49.15.91.12,1.28,0,.06-.06.11-.12.11h-3.3s-.05.02-.06.05M100.88,62.26h2.39s.06-.02.06-.05v-.08c0-.87-.52-1.57-1.16-1.57h-.17c-.65,0-1.17.7-1.17,1.57v.08s.02.06.05.06h0Z"/>
  <path class="cls-1" d="M106.51,60.69s.05.04.07.01c.54-.56.95-1.06,1.75-.82.1.03.15.13.12.23l-.18.54c-.04.1-.15.15-.25.09-.48-.28-1.04.43-1.29.77-.05.06-.07.14-.07.21v3.68c0,.1-.08.19-.18.19h-.5c-.12,0-.21-.1-.21-.22.02-1.71.01-3.11-.01-4.2,0-.24-.08-.5-.24-.76-.05-.08-.03-.19.04-.25l.35-.3c.12-.1.29-.05.35.09l.26.72h0Z"/>
  <path class="cls-1" d="M112.93,60.42c.02.05.09.07.14.04.65-.47,1.43-.85,2.19-.48.41.2.62.59.64,1.16.03,1.05.03,2.5.01,4.34,0,.08-.07.14-.15.14h-.57c-.09,0-.16-.07-.16-.15,0-2.28,0-3.64-.01-4.1-.03-1.12-1.18-.78-1.79-.35-.05.04-.08.1-.08.16v4.25c0,.11-.09.2-.19.2h-.49c-.11,0-.2-.09-.2-.2,0-1.55,0-2.77,0-3.68,0-.43-.04-.71-.12-.84-.35-.56-1.3-.22-1.68.14-.05.05-.08.11-.08.18v4.19c0,.11-.09.21-.21.21h-.47c-.12,0-.21-.09-.21-.21,0-1.95,0-3.1,0-3.44-.01-.63-.09-1.19-.24-1.68-.03-.09.02-.18.11-.21l.5-.18c.07-.02.15.01.18.08l.14.39c.02.06.09.08.14.05.69-.44,1.3-.75,2.12-.49.24.08.39.26.49.49h0Z"/>
  <path class="cls-1" d="M119.93,62.11c.23.01.41-.19.37-.42l-.09-.51c-.05-.27-.25-.48-.52-.53-.61-.13-1.22-.02-1.81.31-.06.03-.14,0-.16-.06l-.16-.46c-.02-.07,0-.14.06-.19.1-.07.26-.14.48-.21,1.24-.39,3.05-.42,3.06,1.3,0,.97.02,1.99.02,3.07,0,.23.08.48.25.75.05.08.03.18-.04.24l-.36.3c-.12.1-.31.05-.36-.1l-.19-.55c-.02-.05-.09-.07-.13-.03-.57.54-1.16.77-1.78.7-.77-.09-1.23-.53-1.33-1.3-.21-1.65,1.22-2.41,2.69-2.32M120.18,62.79c-.91.02-2.23.21-2.07,1.43.08.57.38.83.93.79.34-.02.73-.24,1.16-.65.05-.04.07-.1.07-.16v-1.33s-.04-.09-.09-.09h0Z"/>
  <path class="cls-1" d="M63.61,62.11c.23.01.41-.19.37-.41l-.09-.51c-.05-.27-.25-.48-.52-.54-.61-.13-1.22-.03-1.81.31-.06.03-.13,0-.16-.06l-.16-.46c-.02-.07,0-.14.06-.19.1-.07.26-.14.48-.21,1.24-.39,3.05-.41,3.06,1.31,0,.97.01,1.99.02,3.07,0,.23.08.48.24.75.05.08.03.18-.04.24l-.36.3c-.12.1-.31.05-.36-.1l-.19-.55c-.02-.05-.09-.07-.13-.03-.57.54-1.16.77-1.78.7-.77-.09-1.23-.53-1.33-1.31-.21-1.65,1.23-2.41,2.69-2.32M63.86,62.79c-.91.02-2.22.22-2.06,1.44.08.56.39.83.93.78.34-.03.73-.24,1.15-.65.04-.04.07-.1.07-.16v-1.32s-.05-.09-.09-.09h0Z"/>
  <path class="cls-1" d="M130.71,65.14s.02.01.02,0l1.33-5.14c.02-.07.09-.11.16-.09l.6.2c.09.03.13.12.11.21-.75,2.61-1.3,4.5-1.66,5.67-.15.51-.46,1.47-.95,1.79-.7.46-1.59.26-2.25-.17-.06-.04-.09-.12-.07-.19l.17-.5c.02-.08.12-.1.18-.05.11.09.29.2.53.31,1.06.51,1.38-.67,1.61-1.47.02-.07-.03-.13-.1-.13h-.28c-.06,0-.12-.04-.15-.1l-1.83-5.13c-.03-.09.01-.19.1-.22l.57-.21c.08-.03.17.01.2.1l1.69,5.13h0Z"/>
  <path class="cls-1" d="M82.37,65.59h-.6c-.08,0-.14-.06-.14-.14v-4.6c0-.08-.06-.14-.14-.14h-.77c-.08,0-.14-.06-.14-.14v-.45c0-.08.06-.14.14-.14h1.66c.08,0,.14.06.14.14v5.33c0,.08-.06.14-.14.14h0Z"/>
</svg>