<?xml version="1.0" encoding="UTF-8"?>
<svg id="Layer_1" data-name="Layer 1" xmlns="http://www.w3.org/2000/svg" viewBox="0 0 186 74">
  <defs>
    <style>
      .cls-1 {
        fill: #1d1d1b;
      }
    </style>
  </defs>
  <path class="cls-1" d="M109.43,12.31c-4.75-3.16-10.66-4.07-16.36-4.09-5.7-.01-11.61.86-16.38,4.01-8.09,5.34-9.21,15.73-9.23,24.71-.02,8.97,1.05,19.37,9.11,24.75,4.75,3.17,10.66,4.07,16.36,4.09,5.7.02,11.61-.86,16.38-4.01,8.09-5.34,9.21-15.73,9.23-24.71.02-8.97-1.05-19.37-9.11-24.75ZM81.48,19.75c2.42-.2,3.96.77,4.64,2.89.03.09-.01.19-.09.24l-8.22,4.75c-.06.04-.14.05-.21.04-1.76-.3-3.82-1.58-2.92-3.68,1.05-2.41,4.39-4.04,6.81-4.24ZM86.32,23.52c.42,3.36-.13,6.66-1.63,9.89-.05.11-.17.18-.29.16-1.02-.1-2.11-.05-3.28.14-.07.01-.13-.04-.13-.11-.01-1.02,0-2.58.01-4.68.01-1.07.11-2.57,1.06-3.12,1.68-.97,3.04-1.76,4.1-2.35.07-.04.15,0,.16.08ZM77.76,35.92v4.4c0,.09-.06.17-.15.2-.96.27-1.85.36-2.68.27-1.36-.14-1.49-1.25-.77-2.18.88-1.16,2.04-2.08,3.47-2.77.06-.03.13.02.13.08ZM80.98,34.83c0-.1.07-.18.16-.2.95-.24,1.87-.21,2.76.08.01.03.02.06.03.1-.7,1.44-1.65,2.67-2.84,3.7-.05.04-.11,0-.11-.05v-3.63ZM76.6,28.9c.14-.09.32-.08.44.04.45.42.68,1.01.7,1.75.02,1.28.02,2.62.01,3.99,0,.07-.04.13-.1.16-1.16.61-2.19,1.43-3.1,2.45-.92,1.03-2.35,3.37.05,3.81,1.06.19,2.06.13,3-.18.08-.02.16.03.16.12,0,1.55,0,5.39,0,11.5,0,1.27-.11,2.19-.35,2.77-.46,1.13-1.2,2.12-2.22,2.97-.08.07-.21.06-.28-.02-2.39-2.72-3.92-6.95-4.56-10.49-.84-4.62-1.1-9.32-.8-14.08,0-.08.05-.16.12-.21l6.93-4.59ZM89,65.15c-5.35-.56-10.21-2.42-13.77-6.46-.06-.07-.04-.17.04-.21l6.46-3.73s.06-.09.02-.13c-.33-.31-.52-.76-.59-1.34-.04-.34-.17-1.02-.17-1.46,0-4.08-.01-8.15,0-12.21,0-.09.05-.18.13-.23,1.52-1.03,2.83-2.31,3.93-3.81.07-.09.2-.1.28-.02,1.39,1.53,2.29,3.31,2.69,5.34.57,2.88.43,5.62-.43,8.22-.36,1.1-1.29,3.36-2.56,3.56-1.21.19-2.01-1.03-2.23-2.06-.44-2.03-.28-3.97.47-5.82.28-.67,1.38-2.46,2.32-1.55.3.29.42.69.38,1.2,0,.02.01.04.04.05h0s.05,0,.05-.03c.24-.99-.34-2.06-1.46-1.68-.51.18-1.23,1.08-1.51,1.62-1.29,2.51-2.4,7.69.44,9.65,2.3,1.59,4.78-.16,5.98-2.15,2.73-4.53,2.67-12.1-.68-16.32-.63-.8-1.43-1.36-2.38-1.69-.08-.03-.12-.12-.07-.2.34-.58.62-1.08.85-1.51,1.7-3.12,3.04-7.27,2.78-10.9,0-.06.03-.12.08-.16l11.24-6.49c.16-.09.36.04.34.23-.06.45.14.79.59,1.01.29.12.59.1.9-.06.62-.51.65-1.04.08-1.58-.67-.64-1.54-.34-2.32.11-.98.57-4.58,2.63-10.8,6.2-.08.04-.18.01-.21-.07-.15-.33-.22-.78-.48-1.22-1.28-2.18-3.95-1.98-6.1-1.42-3.63.96-8.19,2.98-9.31,6.85-.52,1.81.43,3.03,2,3.78.08.04.08.14.01.19l-6.32,4.19s-.09,0-.08-.05c.31-7.26,1.96-15.46,8.23-20.05,3.73-2.73,8.34-3.8,13.03-4.02,1.93-.09,3.62-.09,5.06,0,6.47.43,12.42,2.76,16.09,8.11,1.98,2.9,3.24,6.56,3.82,10.09.35,2.1.54,3.63.59,4.58.07,1.42.13,2.36.19,2.83-.01.12-.06.18-.13.18-.65-.95-1.93-.31-1.69.84.02.09.07.17.14.22l.34.24c.22.16.2.49-.03.62l-4.82,2.78c-.06.03-.13,0-.13-.08v-12.36s-.02-.03-.04-.01c-.26.45-.46.71-.6.79-.07.04-.16.05-.23.02-.27-.11-.57-.08-.9.1-1.23.68-1.91,2.43-2.23,3.72-.44,1.74-.51,3.45-.21,5.13.23,1.29.91,3.06,2.52,2.77.09-.02.17.05.17.15v.53c0,.1-.05.19-.14.24l-3.44,1.88.03-11.34.04-1.16s0-.02-.02-.03c-.01,0-.02,0-.03.02-.13.37-.36.71-.7,1.02-.06.06-.16.06-.22.01-1.01-.78-2.39,1.32-2.69,2.03-.9,2.12-1.17,4.34-.82,6.66.2,1.32,1.05,3.6,2.82,2.8.13.45.1.78-.08,1.01-1.62.86-3.19,1.77-4.72,2.72-1.24.77-2.22,1.75-2.93,2.95-1,1.69-1.43,4.22-.1,5.78,1.68,1.99,4.54,1.12,6.41-.28.6-.45,1.37-1.33,2.29-2.64,1.55-2.2,3.1-4.34,4.67-6.42.3-.39.8-.56,1.52-.51.06,0,.1-.06.08-.11-.26-.51-.4-.9-.43-1.17-.05-.63-.06-1.81-.04-3.53,0-.1.05-.19.14-.23,2.86-1.63,4.65-2.66,5.36-3.08.22-.13.49-.39.82-.77l-.07,4.66c-.14,2.84-.48,5.58-1.03,8.21-1.19,5.74-4.16,10.95-9.37,13.76-5.13,2.77-11.29,3.31-17.14,2.69ZM108.78,37.38c0,.14-.15.23-.28.16-1.91-1.05-2.08-4.21-1.73-6.09.23-1.26.79-2.36,1.68-3.3.12-.12.33-.04.33.13v9.1ZM96.57,49.45c.52-1.45,1.67-2.69,3.44-3.74,1.2-.71,2.43-1.42,3.67-2.11v1.95c.1,1.3.03,2.46-.19,3.48-.27,1.24-1.5,2.31-2.8,2.48-1.18.15-1.98-.65-1.99-1.8-.02-2.36,2.66-3.57,4.24-4.71.32-.23.33-.25.02-.05,0,0-.82.47-2.43,1.4-.7.4-1.27.88-1.69,1.45-1.04,1.36-1.49,4.19.95,4.46,1.52.17,3.23-1.18,3.87-2.46.51-1.03.84-2.12,1.98-2.3.08-.01.11-.12.05-.17-.64-.53-.42-2.89-.42-4.5,0-.1.05-.2.15-.25l3.25-1.88c.06-.03.13,0,.13.07v4.11c0,.21-.07.41-.19.58-1.71,2.35-3.45,4.66-5.24,6.92-.33.41-.84.83-1.55,1.26-3.46,2.1-6.63-.32-5.23-4.21ZM103.67,40.59c-.73-.2-1.22-.55-1.47-1.07-1.12-2.34-1.13-4.71-.02-7.11.33-.71.81-1.19,1.45-1.42l.04,9.59Z"/>
  <path class="cls-1" d="M111.95,25.19c.22-.37.32-.54.69-.76.06-.04.12-.07.18-.1.09-.04.15-.14.15-.24v-1.22c0-.07-.09-.09-.12-.03-.22.37-.32.54-.69.76-.06.04-.12.07-.18.1-.1.05-.16.14-.16.24v1.22c0,.07.09.09.12.03Z"/>
  <path class="cls-1" d="M111.52,29.8c0,.6,0,2.96,0,7.07,0,.11-.04.23-.1.32l-.41.59s.02.08.05.06l2.14-1.24c.07-.04.1-.14.05-.21-.19-.27-.28-.67-.28-1.19,0-1.28,0-4.6.01-9.94,0-.1-.13-.13-.18-.05-.52.79-1.13,1.37-1.83,1.75-.08.04-.1.15-.05.22.4.55.6,1.42.6,2.62Z"/>
  <path class="cls-1" d="M97.36,45.56c1.12.12,2.3-2.45,2.64-5.72.34-3.28-.3-6.02-1.42-6.14-1.12-.12-2.3,2.45-2.64,5.72-.34,3.28.3,6.02,1.42,6.14ZM97.93,35.65c.23-.14.47-.09.71.15.96,1.51.96,3.76.75,5.69-.06.53-.42,2.05-1,2.21-.22.06-.47-.04-.61-.26-1.11-1.6-1.21-6.43.16-7.81Z"/>
  <path class="cls-1" d="M92.6,40.34c0,1.79.01,4.15,0,7.07,0,.52-.12.85-.48,1.17-.02.02-.02.04,0,.06.01.02.04.02.06.01l1.88-1.08c.07-.04.1-.13.05-.21-.13-.22-.2-.39-.21-.51,0-1.97-.01-3.73,0-5.28,0-1.4.17-3.34,1.61-3.97.04-.02.07-.06.07-.11v-1.74s-.03-.04-.04-.02c-.67.58-1.14,1.27-1.41,2.07,0,.06-.04.11-.09.15-.05.03-.12,0-.14-.05,0-.02-.02-.05-.02-.09l.03-1.45c0-.07-.1-.09-.13-.03-.33.77-.86,1.35-1.59,1.76-.08.05-.1.16-.04.24.52.54.45,1.24.45,2.01Z"/>
  <path class="cls-1" d="M92,59.72c-.06-.05-.07-.15-.01-.2.66-.68.44-1.75-.61-1.76-1.05-.01-1.29,1.05-.65,1.75.05.06.05.15-.01.2-.41.33-.65.59-.73.79-.42,1.01.37,1.72,1.34,1.73.98.01,1.77-.68,1.38-1.7-.08-.2-.32-.47-.71-.8ZM90.98,58.41l.03-.03c.18-.19.48-.19.68,0l.2.18c.08.08.09.21,0,.29l-.38.41c-.08.08-.21.09-.29,0l-.2-.18c-.2-.19-.22-.49-.05-.68ZM92,61.54c-.25.12-.47.18-.65.18-.19,0-.4-.06-.65-.18-.27-.13-.4-.42-.31-.67.15-.42.46-.74.92-.96.02,0,.03-.01.04-.01s.02,0,.04.01c.46.22.77.54.92.96.09.25-.04.54-.31.67Z"/>
  <path class="cls-1" d="M96.13,59.72c-.06-.05-.07-.15,0-.2.66-.68.44-1.75-.61-1.76-1.05-.01-1.29,1.05-.65,1.74.05.06.05.15-.01.2-.4.33-.65.59-.73.79-.42,1.01.37,1.72,1.34,1.73.97.01,1.77-.68,1.38-1.7-.08-.21-.31-.47-.71-.81ZM95.42,58.25c.39-.05.68.3.49.68-.12.25-.24.38-.34.4-.11.01-.25-.08-.44-.3-.29-.32-.1-.74.3-.79ZM96.13,61.56c-.25.12-.47.18-.65.18-.18,0-.4-.06-.65-.18-.27-.13-.4-.42-.31-.67.15-.42.46-.74.92-.96.02,0,.03-.01.04-.01,0,0,.02,0,.04.01.46.22.77.54.92.96.09.25-.04.54-.3.67Z"/>
  <rect class="cls-1" x="89.04" y="59.21" width=".51" height="2.86" rx=".11" ry=".11"/>
  <path class="cls-1" d="M93.56,59.22h-.27c-.07,0-.13.06-.13.13v2.6c0,.07.06.13.14.13h.27c.07,0,.13-.06.13-.13v-2.6c0-.07-.06-.13-.14-.13Z"/>
</svg>